<svg xmlns="http://www.w3.org/2000/svg" width="500" zoomAndPan="magnify" viewBox="0 0 375 375" height="500" preserveAspectRatio="xMidYMid meet" version="1.0"><path fill="#343333" d="M109.996 50.246a.66.66 0 0 0-.527-.715.657.657 0 0 0-.712.529l-2.102 13.12c-.148 1.015.602 2.027 1.727 2.215l4.95.785v.039l3.226 3.862c-.001 0 .034 0 .034.035l.039.04.035.034.04.04c.038 0 .038.04.073.04h.04c.035 0 .075.035.114.035l15.785 2.511h.261c.04 0 .04 0 .075-.035 0 .001.039.001.039-.038h.035l4.276-2.66.035-.04 4.95.79c1.126.188 2.176-.527 2.329-1.54l1.909-12.034a.658.658 0 0 0-.525-.715.66.66 0 0 0-.714.527l-1.91 12.035c-.074.375-.488.602-.937.524l-34.012-5.4c-.448-.074-.784-.41-.71-.785zm25.684 19.496-2.926 1.84-15.336-2.437-2.21-2.665zM116.969 51.82c.225.035.487.075.714.075 5.511.488 10.386-3.637 10.87-9.149.49-5.512-3.636-10.387-9.148-10.875a10.11 10.11 0 0 0-7.347 2.325c-2.064 1.727-3.302 4.164-3.529 6.825-.448 5.324 3.302 10.011 8.439 10.8zm-7.2-10.648c.187-2.363 1.312-4.465 3.113-6 1.8-1.5 4.086-2.25 6.45-2.024.226 0 .413.036.636.075 4.538.71 7.8 4.836 7.385 9.484-.41 4.84-4.687 8.438-9.562 8.023-4.836-.449-8.434-4.722-8.023-9.558zm30.183 14.285c6.637 1.05 12.938-3.488 13.988-10.125 1.052-6.637-3.487-12.934-10.124-13.984-6.636-1.051-12.937 3.488-13.984 10.125-1.05 6.672 3.484 12.933 10.121 13.984zm-8.922-13.762c.939-6 6.599-10.086 12.564-9.11 5.996.938 10.086 6.599 9.11 12.56-.938 6-6.599 10.085-12.563 9.113-5.96-.938-10.046-6.602-9.109-12.563zm-14.55 19.5c.188-1.277-.671-2.515-1.949-2.699-1.272-.187-2.51.672-2.698 1.95-.187 1.273.676 2.51 1.95 2.699 1.277.222 2.476-.676 2.698-1.95zm-3.449-.562c.115-.602.677-1.05 1.314-.938.601.11 1.05.672.937 1.313-.112.597-.675 1.047-1.311.937-.638-.113-1.048-.675-.939-1.312zm8.888 1.422c.187-1.274-.676-2.512-1.95-2.7-1.273-.187-2.51.676-2.698 1.95-.188 1.277.675 2.515 1.949 2.703a2.325 2.325 0 0 0 2.698-1.953zm-3.45-.563c.114-.597.677-1.047 1.313-.937.603.113 1.052.675.939 1.312-.115.602-.677 1.05-1.314.938-.597-.11-1.011-.672-.937-1.313zm10.427-8.023-1.727 10.76 12.937 2.063 1.348-8.438c.04-.335.375-.562.715-.523.336.04.562.375.523.71l-1.424 9.04c-.036.336-.375.563-.711.523l-14.137-2.25c-.336-.035-.563-.375-.523-.71l1.91-11.961c.039-.34.375-.563.715-.528l2.812.45c.336.039.563.374.523.714-.039.336-.375.563-.71.524zm27.445 20.135 3.152-19.722-7.95 4.613h-.038s-.04 0-.04.035c-.034.001-.034.001-.073.04h-.261l-2.251-.375c-.337-.039-.564-.375-.525-.715.036-.335.375-.562.711-.523l2.063.336 8.847-5.137h.039c.039 0 .039 0 .074-.035 0 .001.039.001.039-.038h.41s.038 0 .038.04c.035 0 .035 0 .035.034l.04.04.038.034.037.04.039.039.035.034v.074c0 .04.04.04.04.078v.377l-3.524 22.233v.115c0-.001 0 .034-.039.034 0 0 0 .04-.035.04l-.039.034-.039.04-.035.038-.001.035-.04.001c-.035.001-.035.04-.074.04 0 0-.04 0-.04.036-.035 0-.035.039-.074.039h-.262c-.038 0-.074 0-.113-.04h-.035c-.039 0-.039-.035-.078-.035 0 0-.035 0-.035-.039-.001.001-.04-.034-.04-.034l-.035-.039-.04-.039-6.824-7.61-2.061-.34c-.337-.034-.564-.374-.525-.71.036-.336.375-.563.711-.523l2.25.375h.149c.039 0 .039 0 .039.035l.04.039.034.039.04.035h.034zM106.957 49.31a.637.637 0 0 1-.035.862c-.152.11-.34.187-.488.148-.153-.039-.262-.074-.375-.187l-2.326-2.586-1.199 7.574 2.996-1.725a.577.577 0 0 1 .83.226.574.574 0 0 1-.227.825l-4.086 2.364-.04-.001c0-.001-.034-.001-.034.034-.04 0-.04 0-.078.039h-.263c-.035 0-.074 0-.113-.04h-.036c-.039 0-.074-.034-.074-.034 0-.001-.039-.001-.039-.04-.038 0-.038-.04-.073-.04l-.04-.035c0-.039-.034-.039-.034-.074V56.543c0-.034-.04-.034-.04-.073 0-.001 0-.036-.038-.036v-.34l1.613-10.124v-.111s0-.04.039-.04c0 0 0-.039.035-.039l.04-.034.038-.04.035-.034v-.04h.04l.035-.038.039-.035c-.001-.001.038-.001.038-.04 0 0 .035 0 .074-.036h.41c.04 0 .04 0 .04.036l.038.039.035.034.04.039h.035zm14.738 38.467 2.25-14.058c.035-.341.375-.564.711-.529.336.04.563.376.524.716l-2.25 14.059c-.035.34-.375.562-.711.527a.656.656 0 0 1-.525-.715zm1.16-13.87-12.523 12.41c-.148.148-.336.187-.523.187-.115-.04-.228-.074-.341-.188a.64.64 0 0 1-.001-.863l12.522-12.41a.633.633 0 0 1 .863 0c.262.262.262.637 0 .863zm4.352-.04 8.063 15.676a.618.618 0 0 1-.266.824c-.11.074-.262.074-.375.074a.678.678 0 0 1-.45-.338l-8.063-15.672a.616.616 0 0 1 .266-.825c.297-.148.637-.039.824.262zM61.926 4.086 60.539 0h1.272l1.051 3.113 1.614-.562L63.613 0h1.274l.937 2.738a.624.624 0 0 1-.375.785l-2.177.75 1.653 4.875c.222-.187.45-.335.75-.449L91.023 0h3.786L66.124 9.824a.846.846 0 0 0-.523 1.086l.261.79.262.784c.148.453.637.676 1.086.528L105.122.039c.001 0 .04 0 .04-.04h1.61c-.223.523-.637.977-1.239 1.164L67.587 14.172c-1.086.375-2.25-.223-2.625-1.274l-.26-.789-.262-.786zm6.562 1.2L66.688 0h1.273l1.688 4.875a.624.624 0 0 1-.375.785.624.624 0 0 1-.785-.375zm4.125 9.038 36.594 10.086c.34.074.527.414.414.75-.038.188-.225.336-.374.414a.677.677 0 0 1-.375 0l-36.597-10.09a.565.565 0 0 1-.41-.75c.075-.297.41-.484.75-.41zm16.649 7.649c.261.187.336.601.11.863l-9.485 12.71a.558.558 0 0 1-.301.224.587.587 0 0 1-.563-.075c-.261-.187-.336-.597-.113-.86l9.488-12.714c.188-.296.563-.335.864-.147zm2.996-4.012c-.262-.187-.336-.6-.11-.862l9.485-12.711c.187-.262.601-.336.863-.114.262.188.336.602.113.864l-9.489 12.71a.586.586 0 0 1-.3.227.748.748 0 0 1-.562-.113zm-37.531 86.09-.977 5.927a.663.663 0 0 0 .488.71l45.145 7.426c.34.04.637-.187.715-.488l1.011-6.035a.667.667 0 0 0-.489-.715l-5.51-.898-12.376-2.024-6.222-1.09-12.375-2.023-5.922-.977 41.394-11.547a.61.61 0 0 0 .374-.3c.075-.149.114-.301.036-.45l-1.649-5.925a.566.566 0 0 0-.749-.41l-7.386 2.063L84.2 88.98l-6.04 1.684-6.035 1.688-6.04 1.687-6.034 1.687-6.448 1.8a.587.587 0 0 0-.375.301c-.075.149-.114.3-.04.45zm45.07 7.915-.79 4.836-.448-.073-2.513-5.399zm-5.25-.863 2.512 5.398-4.724-.785-2.512-5.402zm-6.188-1.012 2.511 5.398-4.722-.789-2.511-5.4zm-6.188-1.05 2.512 5.397-4.723-.785-2.51-5.402zm-6.188-1.013 2.516 5.399-4.727-.785-2.511-5.402zm-6.183-1.011 2.512 5.398-4.726-.79-2.512-5.397zM63.614 106l2.512 5.402-4.727-.789-2.511-5.398zm-3.715 4.39-4.87-.788.785-4.836 1.539.261zM97.32 86.579l1.313 4.727-3.672 1.011 1.911-5.625zm-6.484 1.8 4.61-1.273-1.91 5.622-4.614 1.277zm-6.04 1.688 4.614-1.273-1.914 5.621-4.61 1.277zm-6.034 1.688 4.61-1.277-1.911 5.625-4.612 1.277zm-6.04 1.687 4.614-1.276-1.914 5.625-4.61 1.276zm-6.074 1.689 4.614-1.278-1.914 5.625-4.61 1.277zm-6.035 1.686 4.614-1.277-1.914 5.624-4.614 1.277zm-1.425.41-1.91 5.626-1.5.414-1.313-4.727zm-7.575 39.56 3.864-23.548c.035-.336.375-.562.71-.488.34.04.563.375.489.715l-3.79 22.945 39.56 6.45 3.788-22.946a.582.582 0 0 1 .711-.488c.34.039.563.375.489.71l-3.864 23.551c-.035.336-.375.563-.71.485L52.136 137.5c-.375-.078-.598-.414-.524-.715zm12.41-18.372a.66.66 0 0 0-.71.488l-1.989 12.11a.663.663 0 0 0 .488.71l23.66 3.903a.663.663 0 0 0 .712-.488l1.988-12.114a.66.66 0 0 0-.488-.71zm21.075 15.898-22.461-3.675 1.8-10.91 22.461 3.671zM68.75 124.04c.035-.34.375-.563.71-.49l11.29 1.837c.336.039.562.375.484.715-.035.336-.375.562-.71.484l-11.286-1.836a.66.66 0 0 1-.488-.71zm-.488 3.858a.58.58 0 0 1 .71-.484l11.29 1.836c.336.035.562.375.488.71-.04.34-.375.563-.715.49l-11.285-1.837c-.34-.039-.562-.375-.488-.715zM4.066 89.355l-4.046.672v-1.234l3.863-.676a6.037 6.037 0 0 1 6.972 4.95l2.926 17.023c.075.336-.151.637-.487.71-.34.075-.637-.148-.715-.488L9.656 93.29c-.45-2.626-2.965-4.388-5.59-3.935zm-1.949 12.56-2.097.374v-1.24l2.023-.335C3.168 99.44 3.77 98.05 3.77 96.742a.59.59 0 0 1 .597-.601c.34 0 .602.262.602.602-.001 1.535-.638 3.11-1.837 4.574 1.648 2.137 2.808 3.973 3.785 6.672.113.301-.04.676-.375.79-.04 0-.074.035-.113.035a.61.61 0 0 1-.676-.41c-.86-2.626-2.024-4.387-3.637-6.489zm13.387 36.972 3.226-.563-.375-2.25c-.074-.336.149-.637.489-.71.336-.079.636.148.71.484l.376 2.25 3.222-.563c.34-.074.64.152.715.488.074.336-.152.637-.488.711l-7.614 1.313c-.336.078-.637-.149-.711-.484-.114-.301.113-.602.449-.676zm-1.723-6.414a2.027 2.027 0 0 0 2.325 1.652l4.836-.824a2.03 2.03 0 0 0 1.65-2.327l-3-17.473a2.025 2.025 0 0 0-2.324-1.648l-4.836.824c-1.086.187-1.836 1.238-1.649 2.324l.638 3.75L.02 120.7v1.238l11.625-1.989.597 3.527L.02 125.574v1.239l12.41-2.137.898 5.25L.02 132.21v1.24l13.535-2.325zm-1.651-16.797-.15-.864c-.074-.449.223-.863.637-.937l4.836-.824a.812.812 0 0 1 .938.637l.153.864zm.225 1.2 6.41-1.087 2.665 15.37a.812.812 0 0 1-.637.938l-4.84.828a.816.816 0 0 1-.937-.64zm38.77-96.74a.654.654 0 0 1-.523.712l-7.086 1.125a.912.912 0 0 0-.75.824l-.375 6.148c-.038.34-.3.602-.636.563-.34-.035-.602-.297-.563-.637l.376-6.147c.075-.977.786-1.801 1.762-1.95l6.485-1.05-.336-2.098-7.95 1.273a2.395 2.395 0 0 0-1.988 2.211l-.49 8.363c0 .3-.222.523-.523.562h-.148c-.34-.039-.603-.3-.564-.637l.485-8.363c.114-1.687 1.352-3.074 3-3.336l8.552-1.388a.654.654 0 0 1 .71.524zm-2.922 16.122a.6.6 0 0 0-.039-.563L45.5 31.008c-.11-.223-.375-.336-.637-.297l-30.41 4.911a.556.556 0 0 0-.484.49l-1.052 5.285c-.04.187.035.414.148.562.153.152.34.227.528.188l34.156-5.473c.188-.074.375-.227.453-.414zm-33.937 4.5.789-4.012 29.62-4.762 2.028 3.563zm11.476 39.11s0 .038.035.038c0 .035 0 .035.04.074 0 0 0 .036.038.036l.036.039.04.039.035.035.039.038.04.035s.034 0 .034.04c.04 0 .04 0 .074.038l.04.001.074.001.039.001.113.001 21.11-3.374c.035 0 .074 0 .113-.039h.036c.039 0 .039-.039.074-.039 0 0 .04 0 .04-.035l.038-.04.035-.034.04-.04.035-.04.039-.035s0-.039.039-.039c0-.035 0-.035.035-.074V76.303l-1.5-37.081c0-.34-.3-.602-.636-.602-.336.001-.602.302-.602.638l.415 10.125-5.25.824c-2.024-2.473-5.25-3.824-8.586-3.262-3.374.524-6 2.852-7.124 5.813l-5.25.824-2.774-9.75a.566.566 0 0 0-.75-.41c-.336.074-.523.41-.414.75zm20.024-29.286.261 6.824-3.71.602a8.88 8.88 0 0 0 .109-3.45 9.405 9.405 0 0 0-1.16-3.265zm-13.688-2.437c4.348-.711 8.473 2.289 9.149 6.636.714 4.353-2.286 8.478-6.637 9.15-4.348.715-8.473-2.285-9.149-6.637-.674-4.348 2.287-8.473 6.638-9.148zm-12.223 6.601 4.5-.715a8.806 8.806 0 0 0-.113 3.45c.188 1.2.598 2.29 1.16 3.262l-3.71.602zm6.336 7.086c2.025 2.473 5.251 3.824 8.587 3.262 3.375-.524 6-2.852 7.125-5.813l4.16-.675.676 17.137-20.023 3.227-4.688-16.501zM15.356.824.02 16.461v-1.726L14.117.374c-.113-.112-.187-.26-.262-.374h1.536a.63.63 0 0 1-.035.824zM2.68.301 2.383 0h1.312c-.039.113-.078.227-.152.3a.617.617 0 0 1-.45.188.607.607 0 0 1-.413-.187zm2.062 1.99c-.222-.227-.222-.602 0-.864.227-.227.602-.227.863 0l2.211 2.176c.227.222.227.597 0 .859a.59.59 0 0 1-.41.188.6.6 0 0 1-.414-.187zm349.43 91.339-11.55 1.987c-2.626.45-4.388 2.961-3.938 5.586l2.925 17.024c.074.336-.15.636-.489.71-.335.075-.636-.148-.71-.488l-2.926-17.024a6.04 6.04 0 0 1 4.95-6.973l11.55-1.988a6.04 6.04 0 0 1 6.973 4.95l2.926 17.022c.074.34-.153.637-.488.715-.336.075-.637-.152-.711-.488l-2.926-17.023c-.488-2.699-2.961-4.46-5.586-4.011zm-8.063 20.472c0-2.852.488-4.989 1.35-7.54-1.612-.972-2.737-2.21-3.265-3.671-.11-.3.04-.675.375-.788.301-.114.676.039.79.375.449 1.238 1.46 2.324 2.96 3.148l3.864-.672c1.125-1.277 1.726-2.664 1.726-3.976a.59.59 0 0 1 .598-.598.59.59 0 0 1 .601.597c0 1.539-.637 3.113-1.84 4.574 1.652 2.137 2.812 3.977 3.789 6.677.112.3-.04.675-.376.789-.04 0-.075.035-.114.035a.614.614 0 0 1-.675-.41c-.899-2.59-2.063-4.35-3.672-6.452l-3.563.601c-.828 2.51-1.312 4.573-1.312 7.312 0 .3-.227.562-.528.597h-.11a.59.59 0 0 1-.6-.598zm21.148-23.961 7.722-1.312v1.238l-7.5 1.274c-2.625.45-4.386 2.965-3.937 5.59l2.926 17.02c.073.34-.15.64-.49.714-.335.074-.636-.152-.71-.488l-2.926-17.024c-.563-3.336 1.652-6.449 4.914-7.011zm5.887 11.212 1.835-.301v1.24l-1.46.26c-.825 2.516-1.313 4.575-1.313 7.313a.61.61 0 0 1-.527.602h-.11a.592.592 0 0 1-.601-.602c-.001-2.847.487-4.984 1.35-7.535-1.613-.976-2.738-2.215-3.261-3.676a.61.61 0 0 1 .374-.789c.296-.11.671.04.785.375.413 1.203 1.46 2.29 2.925 3.114zm-32.399 46.082 3.227-.563-.375-2.249c-.075-.335.148-.636.488-.71.336-.074.637.152.71.488l.376 2.25 3.223-.562c.34-.074.64.148.714.488.074.336-.153.637-.489.711l-7.612 1.313c-.336.074-.637-.149-.711-.489-.113-.301.113-.637.45-.676zm24.86-4.274 3.226-.562-.375-2.25c-.074-.336.148-.637.488-.711.336-.074.637.148.711.488l.375 2.25 3.228-.562c.336-.079.637.148.71.484.075.34-.148.64-.488.715l-7.609 1.312c-.339.074-.64-.152-.714-.488-.113-.3.114-.637.45-.676zm4.09-25.422c-.188-1.086-1.24-1.836-2.325-1.648l-4.839.824c-1.085.188-1.835 1.238-1.647 2.324l.637 3.75-16.047 2.774-.637-3.75a2.03 2.03 0 0 0-2.328-1.649l-4.836.825c-1.086.187-1.836 1.238-1.649 2.324l3 17.472a2.027 2.027 0 0 0 2.325 1.653l4.836-.824a2.028 2.028 0 0 0 1.648-2.329l-.223-1.347 16.046-2.774.227 1.348c.187 1.087 1.238 1.837 2.324 1.65l4.836-.825a2.027 2.027 0 0 0 1.652-2.324l-.226-1.347 2.51-.414v-1.24l-2.699.45-.897-5.246 3.597-.64v-1.235l-3.824.636-.597-3.528 4.42-.75v-1.234l-4.648.785zm-6.938.414 4.836-.828a.814.814 0 0 1 .937.64l.154.86-6.414 1.09-.149-.863c-.112-.413.189-.823.638-.898zm-1.012 6.075.598 3.523-16.047 2.773-.602-3.523zm-24.523-.903c-.075-.45.226-.863.636-.937l4.835-.825a.812.812 0 0 1 .938.637l.152.863-6.414 1.085zm8.773 17.285-4.836.827a.814.814 0 0 1-.937-.64l-2.664-15.371 6.413-1.09 2.66 15.375c.078.415-.223.825-.637.9zm1.426-3.673-.899-5.25 16.047-2.773.899 5.246zm24.07-1.5a.808.808 0 0 1-.637.938l-4.835.824c-.45.073-.864-.227-.938-.637l-2.66-15.376 6.41-1.085zm-74.015-85.19a.658.658 0 0 0-.524-.716.66.66 0 0 0-.715.529l-2.097 13.12c-.152 1.015.598 2.027 1.723 2.215l4.95.785v.039l3.226 3.862s.034 0 .034.035l.04.04.038.034.035.04c.04 0 .04.04.075.04h.039c.04 0 .075.035.114.035l15.785 2.511h.261c.04 0 .04 0 .075-.035 0 .001.04.001.04-.038h.038l4.274-2.66.035-.04 4.953.79c1.121.188 2.172-.527 2.324-1.54l1.91-12.034a.658.658 0 0 0-.524-.715.66.66 0 0 0-.715.527l-1.91 12.035c-.073.375-.487.602-.937.524l-34.007-5.4c-.453-.074-.79-.41-.715-.785zm25.683 19.495-2.922 1.84-15.336-2.437-2.215-2.665zM304.45 51.82c.226.035.487.075.714.075 5.512.488 10.387-3.637 10.875-9.149.483-5.512-3.642-10.387-9.153-10.875a10.11 10.11 0 0 0-7.348 2.325c-2.063 1.727-3.302 4.164-3.524 6.825-.453 5.324 3.297 10.011 8.433 10.8zm-7.2-10.648c.188-2.363 1.312-4.465 3.113-6 1.801-1.5 4.086-2.25 6.45-2.024.226 0 .414.036.636.075 4.538.71 7.8 4.836 7.386 9.484-.41 4.84-4.688 8.438-9.559 8.023-4.84-.449-8.437-4.722-8.027-9.558zm30.188 14.285c6.636 1.05 12.933-3.488 13.984-10.125 1.05-6.637-3.488-12.934-10.125-13.984-6.637-1.051-12.934 3.488-13.984 10.125-1.051 6.672 3.488 12.933 10.125 13.984zm-8.926-13.762c.937-6 6.597-10.086 12.562-9.11 6 .938 10.086 6.599 9.11 12.56-.938 6-6.598 10.085-12.56 9.113-5.964-.938-10.05-6.602-9.112-12.563zm-14.547 19.5c.187-1.277-.676-2.515-1.953-2.699-1.274-.187-2.512.672-2.7 1.95-.187 1.273.676 2.51 1.95 2.699 1.277.222 2.476-.676 2.703-1.95zm-3.45-.562c.11-.602.672-1.05 1.31-.938.6.11 1.05.672.937 1.313-.11.597-.672 1.047-1.313.937-.638-.113-1.048-.675-.934-1.312zm8.883 1.422c.188-1.274-.671-2.512-1.949-2.7-1.274-.187-2.513.676-2.7 1.95-.188 1.277.676 2.515 1.95 2.703a2.325 2.325 0 0 0 2.698-1.953zm-3.449-.563c.112-.597.675-1.047 1.312-.937.601.113 1.05.675.937 1.312-.11.602-.673 1.05-1.313.938-.598-.11-1.012-.672-.938-1.313zm10.425-8.023-1.727 10.76 12.938 2.063 1.352-8.438c.035-.335.375-.562.71-.523.336.04.563.375.524.71l-1.422 9.04c-.04.336-.375.563-.715.523l-14.137-2.25c-.336-.035-.562-.375-.523-.71l1.914-11.961c.034-.34.374-.563.71-.528l2.812.45c.336.039.563.374.524.714-.035.336-.375.563-.71.524zm31.984-.786v.188l-3.524 22.233v.115c0-.001 0 .034-.04.034 0 0 0 .04-.038.04l-.035.034-.04.04-.035.038v.035l-.039.001c-.04.001-.04.04-.075.04 0 0-.039 0-.039.036-.035 0-.035.039-.074.039h-.263c-.039 0-.074 0-.113-.04h-.04c-.034 0-.034-.035-.073-.035 0 0-.036 0-.036-.039l-.039-.034-.04-.039-.035-.039-6.824-7.61-2.062-.34c-.34-.034-.562-.374-.527-.71.04-.336.376-.563.716-.523l2.25.375H337.485c.04 0 .04 0 .04.035l.035.039.038.035.039.038h.035l6.113 6.824 3.149-19.722-7.91 4.726h-.04s-.035 0-.035.035c-.04.001-.04.001-.079.04h-.261l-2.25-.375c-.337-.039-.563-.375-.524-.715.035-.335.375-.562.71-.523l2.063.336 8.85-5.137h.036c.04 0 .04 0 .074-.035 0 .001.04.001.04-.038h.411s.039 0 .039.04c.038 0 .038 0 .038.034l.035.04.039.034.035.04.04.039.038.034v.074c0 .04.035.04.035.078v.11c.04.04.04.04.04.079zm-53.922-3.375a.637.637 0 0 1-.036.862c-.152.11-.34.187-.488.148-.148-.039-.262-.074-.375-.187l-2.325-2.586-1.2 7.574 3-1.725a.574.574 0 0 1 .825.226.574.574 0 0 1-.227.825l-4.086 2.364-.039-.001c0-.001-.035-.001-.035.034-.039 0-.039 0-.074.039h-.267c-.035 0-.074 0-.11-.04h-.038c-.04 0-.074-.034-.074-.034 0-.001-.038-.001-.038-.04-.036 0-.036-.04-.075-.04l-.039-.035c0-.039-.035-.039-.035-.074V56.543c0-.034-.039-.034-.039-.073 0-.001 0-.036-.035-.036l-.001-.079-.001-.074c-.001.001-.001-.034-.001-.073l-.001-.074-.001-.04 1.608-10.124v-.111s0-.04.04-.04c0 0 0-.039.038-.039l.036-.034.039-.04.036-.034v-.04h.039l.039-.038.035-.035c0-.001.038-.001.038-.04 0 0 .035 0 .074-.036h.415c.035 0 .035 0 .035.036l.039.039.036.034.039.039h.039zm14.738 38.467 2.25-14.058c.035-.341.375-.564.71-.529.34.04.563.376.528.716l-2.25 14.059c-.04.34-.375.562-.715.527a.656.656 0 0 1-.524-.715zm1.16-13.87-12.523 12.41c-.149.148-.336.187-.524.187-.114-.04-.228-.074-.337-.188a.633.633 0 0 1 0-.863l12.524-12.41a.628.628 0 0 1 .859 0c.266.262.266.637 0 .863zm4.352-.04 8.062 15.676a.62.62 0 0 1-.262.824c-.113.074-.265.074-.375.074a.685.685 0 0 1-.453-.338l-8.058-15.672a.61.61 0 0 1 .261-.825c.301-.148.637-.039.824.262zM249.406 4.086 248.02 0h1.273l1.05 3.113 1.614-.562-.863-2.55h1.273l.938 2.738a.624.624 0 0 1-.375.785l-2.172.75 1.648 4.875a2.52 2.52 0 0 1 .75-.449l25.348-8.7h3.785l-28.685 9.824a.846.846 0 0 0-.523 1.086l.262.79.261.784a.85.85 0 0 0 1.086.528L292.603.039s.039 0 .039-.04h1.61c-.223.523-.637.977-1.234 1.164l-37.95 13.008c-1.086.375-2.246-.223-2.62-1.274l-.266-.789-.262-.786zm6.563 1.2L254.167 0h1.273l1.689 4.875a.624.624 0 0 1-.376.785.625.625 0 0 1-.785-.375zm4.124 9.038 36.594 10.086c.34.074.527.414.414.75-.04.188-.227.336-.375.414a.677.677 0 0 1-.375 0l-36.598-10.09a.565.565 0 0 1-.41-.75c.074-.297.41-.484.75-.41zm16.648 7.649c.262.187.336.601.113.863l-9.488 12.71a.558.558 0 0 1-.3.224.588.588 0 0 1-.563-.075c-.262-.187-.336-.597-.113-.86l9.489-12.714c.186-.296.561-.335.862-.147zm3-4.012c-.265-.187-.34-.6-.113-.862l9.483-12.711c.188-.262.602-.336.864-.114.261.188.34.602.113.864l-9.488 12.71a.593.593 0 0 1-.297.227c-.188.035-.414 0-.563-.113zm-37.535 86.09-.977 5.927a.663.663 0 0 0 .489.71l45.143 7.426a.66.66 0 0 0 .715-.488l1.012-6.035a.663.663 0 0 0-.488-.715l-5.512-.898-12.375-2.024-6.223-1.09-12.375-2.023-5.922-.977 41.395-11.547a.61.61 0 0 0 .375-.3c.074-.149.113-.301.039-.45l-1.652-5.925a.565.565 0 0 0-.75-.41l-7.387 2.063-6.035 1.687-6.04 1.684-12.07 3.375-6.039 1.687-6.448 1.8a.596.596 0 0 0-.375.301c-.074.149-.113.3-.04.45zm45.07 7.915-.789 4.836-.449-.073-2.513-5.399zm-5.25-.863 2.512 5.398-4.724-.785-2.511-5.402zm-6.187-1.012 2.512 5.398-4.723-.789-2.513-5.4zm-6.188-1.05 2.516 5.397-4.727-.785-2.51-5.402zm-6.183-1.013 2.51 5.399-4.726-.785-2.512-5.402zm-6.189-1.011 2.513 5.398-4.727-.79-2.511-5.397zM251.095 106l2.511 5.402-4.722-.789-2.516-5.398zm-3.711 4.39-4.875-.788.785-4.836 1.54.261zm37.422-23.812 1.308 4.727-3.672 1.011 1.912-5.625zm-6.489 1.8 4.614-1.273-1.914 5.622-4.614 1.277zm-6.039 1.688 4.614-1.273-1.91 5.621-4.613 1.277zm-6.035 1.688 4.613-1.277-1.914 5.625-4.612 1.277zm-6.035 1.687 4.61-1.276-1.91 5.625-4.614 1.276zm-6.078 1.689 4.612-1.278-1.91 5.625-4.613 1.277zm-6.036 1.686 4.613-1.277-1.914 5.624-4.613 1.277zm-1.426.41-1.91 5.626-1.5.414-1.313-4.727zm-7.574 39.56 3.863-23.548a.585.585 0 0 1 .71-.488c.34.04.563.375.49.715l-3.786 22.945 39.56 6.45 3.785-22.946c.039-.34.375-.562.715-.488a.58.58 0 0 1 .484.71l-3.86 23.551a.582.582 0 0 1-.714.485L239.62 137.5c-.374-.078-.6-.414-.526-.715zm12.414-18.372a.66.66 0 0 0-.715.488l-1.988 12.11a.663.663 0 0 0 .488.71l23.66 3.903a.667.667 0 0 0 .715-.488l1.984-12.114a.66.66 0 0 0-.484-.71zm21.07 15.898-22.46-3.675 1.8-10.91 22.46 3.671zM256.23 124.04a.582.582 0 0 1 .711-.49l11.29 1.837c.336.039.563.375.489.715a.582.582 0 0 1-.716.484l-11.285-1.836a.66.66 0 0 1-.49-.71zm-.488 3.858a.582.582 0 0 1 .715-.484l11.285 1.836c.336.035.563.375.488.71-.039.34-.375.563-.714.49l-11.286-1.837c-.335-.039-.562-.375-.488-.715zm76.645-116.613a.638.638 0 0 1-.078-.45L334.409 0h1.238l-2.062 10.5c1.086.336 1.988 1.05 2.66 1.984.64.938.938 2.063.863 3.188l16.312 3.187a5.073 5.073 0 0 1 5.21-3.485L361.595 0h1.238l-3.187 16.2c-.075.335-.375.523-.711.487a3.852 3.852 0 0 0-4.54 3.036c-.035.3-.296.488-.597.488h-.113l-17.438-3.413c-.148-.035-.297-.11-.375-.262a.66.66 0 0 1-.073-.45c.187-1.01 0-2.022-.598-2.886-.563-.864-1.466-1.427-2.477-1.65a.756.756 0 0 1-.336-.265zM341.16 0h1.2c-.301 3.113 1.835 6 4.949 6.637 3.335.636 6.6-1.54 7.237-4.875.113-.598.148-1.16.074-1.762h1.2c.04.676 0 1.312-.113 1.988-.672 3.524-3.785 5.961-7.234 5.961-.489 0-.938-.04-1.426-.15-3.637-.714-6.149-4.124-5.887-7.8zm33.82 14.773V16.5l-11.062 11.246c-.223.227-.598.227-.86 0a3.863 3.863 0 0 0-5.476.074.598.598 0 0 1-.41.188.6.6 0 0 1-.414-.188l-5.399-5.285c-.227-.226-.227-.601 0-.863.222-.223.597-.223.863 0l5.023 4.914c1.8-1.465 4.426-1.5 6.262-.074zm-7.386-1.875c1.164-1.164 1.761-2.738 1.761-4.386 0-1.649-.671-3.188-1.835-4.352-.825-.785-1.801-1.347-2.926-1.61a.595.595 0 0 1-.45-.714.593.593 0 0 1 .711-.45c1.313.301 2.516.977 3.489 1.915 1.426 1.388 2.176 3.223 2.215 5.173.034 1.988-.716 3.824-2.103 5.25a7.37 7.37 0 0 1-5.285 2.215c-.375 0-.75-.04-1.164-.079-.336-.036-.563-.376-.488-.672a.565.565 0 0 1 .675-.489 6.248 6.248 0 0 0 5.399-1.802zM173.438 97.34l2.925 17.023c.074.336-.148.637-.488.711-.336.078-.637-.148-.71-.484l-2.927-17.024c-.449-2.625-2.96-4.386-5.586-3.937l-11.55 1.987c-2.625.45-4.387 2.961-3.934 5.586l2.922 17.024c.074.336-.149.636-.488.71-.336.075-.637-.148-.711-.488l-2.925-17.024a6.04 6.04 0 0 1 4.95-6.973l11.55-1.988a5.986 5.986 0 0 1 6.973 4.875zm-5.81 3.637c0 1.539-.64 3.113-1.839 4.574 1.651 2.137 2.812 3.977 3.788 6.677.11.3-.039.675-.375.789-.039 0-.078.035-.113.035a.614.614 0 0 1-.676-.41c-.898-2.59-2.062-4.35-3.676-6.452l-3.562.601c-.824 2.51-1.309 4.573-1.309 7.312 0 .3-.226.562-.527.597h-.113a.59.59 0 0 1-.598-.598c-.001-2.852.487-4.989 1.347-7.54-1.61-.972-2.735-2.21-3.262-3.671a.614.614 0 0 1 .375-.788c.3-.114.676.039.789.375.448 1.238 1.46 2.324 2.96 3.148l3.863-.672c1.125-1.277 1.723-2.664 1.723-3.976 0-.336.265-.598.601-.598.336-.001.602.26.602.597zm33.634 9.113c.074.336-.153.637-.489.71-.335.075-.636-.148-.71-.488l-2.926-17.023c-.45-2.626-2.961-4.388-5.586-3.935l-4.05.711-7.5 1.274c-2.625.45-4.387 2.965-3.938 5.59l2.926 17.02c.074.34-.148.64-.488.714-.336.074-.637-.152-.71-.488l-2.927-17.024a6.035 6.035 0 0 1 4.95-6.972l7.726-1.313 3.858-.676a6.038 6.038 0 0 1 6.977 4.95zm-8.774-13.387c0 1.535-.64 3.113-1.84 4.574 1.653 2.137 2.813 3.977 3.79 6.676a.612.612 0 0 1-.376.785c-.039 0-.074.04-.113.04a.617.617 0 0 1-.677-.415c-.898-2.586-2.062-4.347-3.671-6.449l-2.102.375-1.46.26c-.83 2.516-1.313 4.575-1.313 7.313a.61.61 0 0 1-.528.602h-.114a.59.59 0 0 1-.598-.602c0-2.847.489-4.984 1.348-7.535-1.61-.976-2.734-2.215-3.262-3.676a.617.617 0 1 1 1.164-.414c.45 1.239 1.461 2.328 2.961 3.153l1.84-.3 2.023-.336c1.124-1.277 1.726-2.664 1.726-3.977a.59.59 0 0 1 .597-.597c.336-.078.601.187.601.523zm-39.222 50.73 3.226-.562-.375-2.249c-.078-.335.149-.636.485-.71.34-.074.64.152.714.488l.375 2.25 3.224-.562c.34-.074.637.148.715.488.073.336-.153.637-.49.711l-7.613 1.313c-.336.074-.636-.149-.71-.489-.114-.301.113-.637.449-.676zm24.86-4.273 3.226-.562-.375-2.25c-.075-.336.148-.637.488-.711.336-.074.637.148.71.488l.376 2.25 3.223-.562c.34-.079.641.148.715.484.074.34-.152.64-.488.715l-7.613 1.312c-.336.074-.637-.152-.711-.488-.113-.3.113-.637.45-.676zm24.374-3.562c-.078-.336.148-.637.484-.711l3.227-.563-.374-2.25c-.074-.336.148-.637.488-.71.336-.079.637.148.711.484l.375 2.25 3.227-.563c.336-.074.636.152.71.488.075.336-.148.637-.488.711l-7.61 1.313c-.375.113-.715-.11-.75-.45zm-1.465-8.473.227 1.348c.187 1.09 1.238 1.84 2.324 1.652l4.836-.824a2.03 2.03 0 0 0 1.652-2.327l-3-17.473c-.187-1.086-1.238-1.836-2.324-1.648l-4.84.824c-1.086.187-1.836 1.238-1.648 2.324l.636 3.75-11.398 1.95-4.648.788-.637-3.75a2.03 2.03 0 0 0-2.328-1.648l-4.836.824c-1.085.188-1.835 1.238-1.648 2.324l.637 3.75-16.048 2.774-.64-3.75a2.027 2.027 0 0 0-2.325-1.649l-4.836.825c-1.085.187-1.835 1.238-1.647 2.324l3 17.472a2.027 2.027 0 0 0 2.324 1.653l4.836-.824a2.03 2.03 0 0 0 1.649-2.329l-.223-1.347 16.046-2.774.226 1.348a2.027 2.027 0 0 0 2.325 1.65l4.835-.825a2.027 2.027 0 0 0 1.649-2.324l-.222-1.347 2.512-.414zm7.836.035a.806.806 0 0 1-.636.938l-4.836.828a.814.814 0 0 1-.937-.64l-2.663-15.372 6.414-1.09zm-8.733-17.285 4.836-.824c.449-.073.863.227.937.637l.152.864-6.414 1.087-.148-.86c-.113-.414.188-.828.637-.902zm-12.637 8.062 11.625-1.988.598 3.527-12.223 2.097-3.824.637-.602-3.522zm-12.223-3.785 4.836-.828a.814.814 0 0 1 .938.64l.15.86-6.41 1.09-.15-.863c-.113-.413.188-.823.637-.898zm-1.011 6.075.597 3.523-16.047 2.773-.601-3.523zm-24.524-.903c-.074-.45.223-.863.637-.937l4.835-.825c.45-.074.863.227.937.637l.153.863-6.414 1.085zm8.774 17.285-4.836.827a.812.812 0 0 1-.938-.64l-2.664-15.371 6.414-1.09 2.66 15.375a.79.79 0 0 1-.636.9zm1.425-3.673-.9-5.25 16.05-2.773.898 5.246zm23.435-.601-4.836.824c-.45.074-.864-.223-.938-.637l-2.665-15.375 6.415-1.086 2.66 15.376c.074.41-.223.824-.637.898zm1.426-3.637-.902-5.25 3.602-.637 12.41-2.137.902 5.25-13.351 2.285zm53.805-112.563a.654.654 0 0 1-.523.71l-7.086 1.126a.912.912 0 0 0-.75.824l-.375 6.148c-.038.34-.3.602-.636.563-.34-.035-.601-.297-.562-.637l.375-6.147c.074-.977.785-1.801 1.762-1.95l6.487-1.05-.34-2.098-7.95 1.273a2.4 2.4 0 0 0-1.987 2.211l-.485 8.363c0 .3-.226.523-.527.562h-.149c-.34-.039-.602-.3-.563-.637l.488-8.363c.11-1.687 1.348-3.074 3-3.336l8.547-1.388c.34-.039.637.188.71.524zm-2.921 16.12a.6.6 0 0 0-.04-.562l-2.66-4.687c-.113-.223-.375-.336-.64-.297l-30.446 4.872a.564.564 0 0 0-.488.488l-1.05 5.29c-.036.187.038.41.152.562.148.148.336.223.523.187l34.16-5.477a.63.63 0 0 0 .489-.375zm-33.934 4.5.785-4.01 29.621-4.763 2.028 3.563zm11.473 39.11s0 .04.039.04c0 .034 0 .034.035.073 0 0 0 .036.039.036l.035.039.04.039.04.035.034.038.04.035s.035 0 .035.04c.038 0 .038 0 .077.038l.035.001.074.001.04.001.112.001 21.11-3.374c.039 0 .074 0 .113-.039h.036c.04 0 .04-.039.078-.039 0 0 .036 0 .036-.035l.039-.04.034-.034.039-.04.039-.04.035-.035s0-.039.04-.039c0-.035 0-.035.034-.074l.001-.039.001-.074.001-.036.001-.04-1.499-37.081c.001-.34-.296-.602-.635-.602-.336.001-.598.302-.598.638l.41 10.125-5.25.824c-2.023-2.473-5.25-3.824-8.586-3.262-3.374.524-5.999 2.852-7.124 5.813l-5.25.824-2.773-9.75a.565.565 0 0 0-.75-.41.565.565 0 0 0-.41.75zm20.023-29.285.262 6.824-3.711.602c.262-1.09.3-2.29.113-3.45a9.41 9.41 0 0 0-1.164-3.265zm-13.687-2.437c4.35-.711 8.475 2.289 9.147 6.636.715 4.353-2.285 8.478-6.637 9.15-4.347.715-8.472-2.285-9.148-6.637-.676-4.348 2.289-8.473 6.637-9.148zm-12.224 6.601 4.5-.715a8.88 8.88 0 0 0-.113 3.45 9.39 9.39 0 0 0 1.164 3.262l-3.715.602zm6.336 7.086c2.023 2.473 5.25 3.824 8.586 3.262 3.375-.524 6-2.852 7.125-5.813l4.164-.675.672 17.137-20.02 3.227-4.688-16.501zm-68.77-50.547a.657.657 0 0 1-.074-.45L146.93 0h1.238l-2.063 10.5c1.086.336 1.985 1.05 2.66 1.984.637.938.938 2.063.864 3.188l16.311 3.187a5.073 5.073 0 0 1 5.212-3.485L174.113 0h1.239l-3.188 16.2c-.074.335-.375.523-.71.487a3.852 3.852 0 0 0-4.54 3.036c-.035.3-.3.488-.598.488h-.113l-17.437-3.413c-.149-.035-.301-.11-.375-.262-.074-.148-.113-.3-.074-.45.188-1.01 0-2.022-.601-2.886-.563-.864-1.461-1.427-2.473-1.65a.788.788 0 0 1-.34-.265zM153.68 0h1.199c-.302 3.113 1.835 6 4.948 6.637 3.336.636 6.598-1.54 7.238-4.875.11-.598.149-1.16.075-1.762h1.2c.035.676 0 1.312-.113 1.988-.676 3.524-3.786 5.961-7.239 5.961-.484 0-.933-.04-1.422-.15-3.636-.714-6.152-4.124-5.886-7.8zm26.433 12.898c1.164-1.164 1.762-2.738 1.762-4.386 0-1.649-.676-3.188-1.836-4.352-.825-.785-1.802-1.347-2.927-1.61a.595.595 0 0 1-.449-.714.59.59 0 0 1 .71-.45c1.314.301 2.513.977 3.49 1.915 1.425 1.388 2.175 3.223 2.21 5.173.04 1.988-.71 3.824-2.097 5.25a7.373 7.373 0 0 1-5.29 2.215c-.374 0-.75-.04-1.16-.079a.562.562 0 0 1-.488-.672.565.565 0 0 1 .675-.489 6.25 6.25 0 0 0 5.398-1.802zm-4.125 13.614L187.5 14.773 201.598.375c-.114-.113-.188-.262-.262-.375h1.54c.222.227.186.602 0 .824L187.5 16.461l-11.062 11.286c-.223.227-.598.227-.86 0a3.863 3.863 0 0 0-5.476.074.6.6 0 0 1-.415.188.598.598 0 0 1-.41-.188l-5.398-5.285c-.228-.226-.228-.601-.001-.863.222-.223.597-.223.858 0l5.028 4.914c1.761-1.465 4.386-1.5 6.222-.074zM190.164.3l-.3-.3h1.312c-.04.113-.074.227-.153.3a.59.59 0 0 1-.41.188.61.61 0 0 1-.449-.187zm2.059 1.99c-.223-.227-.223-.602 0-.864.226-.227.601-.227.863 0l2.215 2.176c.223.222.223.597 0 .859a.607.607 0 0 1-.413.188.607.607 0 0 1-.414-.187zm-46.008 241.737a.654.654 0 0 0-.711.524l-1.91 12.036c-.078.375-.489.602-.938.527l-34.011-5.402c-.45-.073-.786-.41-.711-.784l2.097-13.125a.654.654 0 0 0-.522-.71.654.654 0 0 0-.711.523l-2.102 13.125c-.148 1.012.602 2.024 1.727 2.211l4.95.788v.035l3.222 3.864s.039 0 .039.039l.035.035.04.04.038.035c.035 0 .035.04.074.04h.035c.04 0 .079.038.114.038l15.784 2.512h.266c.035 0 .035 0 .074-.04 0 0 .035 0 .035-.034h.038l4.273-2.663.04-.04 4.95.79c1.125.187 2.175-.524 2.324-1.54l1.914-12.034c.074-.41-.152-.75-.453-.786zm-13.461 15.036-15.336-2.438-2.21-2.664 20.472 3.263zm-4.2-28.797c.49-5.512-3.636-10.387-9.148-10.875a10.093 10.093 0 0 0-7.347 2.325c-2.064 1.726-3.302 4.164-3.529 6.824a10.07 10.07 0 0 0 8.439 10.8c.225.035.487.074.714.074 5.546.488 10.421-3.637 10.87-9.148zm-10.76 7.91c-4.837-.41-8.435-4.688-8.024-9.563.187-2.36 1.312-4.46 3.113-5.996 1.8-1.5 4.086-2.25 6.45-2.027.226 0 .413.039.636.074 4.538.715 7.8 4.84 7.385 9.488-.41 4.836-4.722 8.473-9.562 8.024zm36.147-5.363c1.052-6.637-3.487-12.934-10.124-13.985-6.636-1.05-12.937 3.488-13.984 10.125-1.05 6.637 3.484 12.934 10.121 13.984 6.676 1.09 12.938-3.488 13.988-10.124zm-13.8 8.925c-5.995-.937-10.085-6.597-9.109-12.562.939-6 6.599-10.086 12.564-9.11 5.96.973 10.086 6.598 9.11 12.56-.938 5.964-6.563 10.089-12.563 9.112zm-28.308 6.188c-.187 1.273.676 2.512 1.95 2.7 1.277.186 2.51-.677 2.698-1.95.188-1.278-.671-2.512-1.949-2.7a2.32 2.32 0 0 0-2.698 1.95zm3.45.562c-.114.598-.677 1.051-1.313.938-.599-.113-1.048-.676-.939-1.313.115-.601.677-1.05 1.314-.937.601.113 1.011.676.937 1.312zm1.988.301c-.188 1.273.675 2.51 1.949 2.698 1.276.188 2.51-.676 2.698-1.949.187-1.278-.672-2.517-1.95-2.704a2.393 2.393 0 0 0-2.698 1.953zm3.449.562c-.115.597-.677 1.046-1.314.937-.597-.114-1.05-.677-.937-1.313.112-.602.675-1.051 1.311-.938.638.108 1.052.67.939 1.312zm5.135 2.734 1.915-11.96c.035-.337.375-.564.71-.524l2.813.449c.336.04.562.376.523.712-.035.34-.375.562-.71.527l-2.211-.34-1.727 10.76 12.937 2.063 1.348-8.433c.04-.34.375-.563.715-.527.336.039.562.374.523.714l-1.424 9.036c-.036.335-.375.562-.711.523l-14.137-2.25a.692.692 0 0 1-.563-.75zm21.036 2.137c.04-.336.376-.559.715-.524l2.25.374h.15c.04 0 .04 0 .04.04l.034.034.04.04.034.035h.04l6.113 6.828 3.148-19.726-7.91 4.653h-.04s-.038 0-.038.035c-.035 0-.035 0-.074.039h-.261l-2.251-.374c-.337-.04-.564-.375-.525-.711.036-.34.375-.563.711-.527l2.063.34 8.847-5.141h.039c.039 0 .039 0 .074-.035 0 0 .039 0 .039-.04h.41s.038 0 .038.04c.035 0 .035 0 .035.035l.04.039.038.039.037.035.039.04.035.034V239.902c0 .036.04.036.04.075v.375l-3.524 22.234v.113s0 .034-.039.034c0 0 0 .04-.035.04l-.039.039-.039.035-.035.039-.001.035h-.04c-.035 0-.035.039-.074.039 0 0-.04 0-.04.04-.035 0-.035.035-.074.035h-.262c-.038 0-.074 0-.113-.035h-.035c-.039 0-.039-.04-.078-.04 0 0-.035 0-.035-.038l-.04-.035-.035-.04-.04-.034-6.824-7.614-2.061-.337c-.302 0-.525-.3-.49-.64zm-43.156-19.196-1.199 7.575 2.996-1.727a.577.577 0 0 1 .83.227c.187.3.074.675-.227.824l-4.086 2.363h-.04s-.034 0-.034.034c-.04 0-.04 0-.078.04h-.263c-.035 0-.074 0-.113-.04h-.036c-.039 0-.074-.035-.074-.035s-.039 0-.039-.04c-.038 0-.038-.035-.073-.035l-.04-.04c0-.038-.034-.038-.034-.073v-.075c0-.039-.04-.039-.04-.078 0 0 0-.036-.038-.036v-.34l1.613-10.12v-.114s0-.04.039-.04c0 0 0-.034.035-.034l.04-.04.038-.038.035-.036v-.039h.04l.035-.035.039-.039c-.001 0 .038 0 .038-.04 0 0 .035 0 .074-.035h.41c.04 0 .04 0 .04.035l.038.04.035.038.04.035h.035l3.152 3.528a.632.632 0 0 1-.04.86c-.148.113-.335.188-.487.152-.149-.039-.262-.074-.375-.187zm21.41 26.36-2.25 14.062c-.039.335-.374.562-.714.523-.336-.04-.563-.375-.524-.711l2.25-14.063c.04-.337.375-.563.711-.524.34.074.563.41.528.71zm-2.289 0-12.523 12.41c-.148.152-.336.187-.523.187a.743.743 0 0 1-.341-.187c-.224-.223-.224-.637-.001-.863l12.522-12.41c.227-.223.64-.223.863 0 .262.261.262.636 0 .863zm12.375 15.672c.149.3.04.674-.261.823-.115.078-.263.078-.376.078a.67.67 0 0 1-.45-.339l-8.062-15.67a.61.61 0 1 1 1.086-.562zM61.102 167.382c-.114-.336-.454-.488-.79-.375-.335.113-.488.45-.375.789l6.75 19.683 1.801 5.29c.11.335.45.484.785.375.34-.114.489-.454.375-.79l-1.687-4.875-2.022-5.886 28.535-9.75 3.672 10.761c.113.34.453.489.789.375.336-.109.488-.449.375-.785l-8.552-24.972c-.11-.34-.45-.489-.785-.375-.336.113-.489.449-.375.785l.75 2.176-28.535 9.749zm29.656-6.41 3.34 9.71-28.535 9.75-3.336-9.714zM59.113 183.28l1.426 4.2 1.386 4.086 2.472 7.239.266.789.262.785a2.048 2.048 0 0 0 2.625 1.276l37.946-12.976c.598-.188 1.012-.637 1.238-1.16.188-.45.223-.977.036-1.465l-.262-.825-.262-.785-2.476-7.238-2.813-8.25c-.11-.336-.45-.488-.785-.375l-2.738.938c-.336.113-.489.449-.375.789l2.811 8.249c.114.335.45.483.79.374l2.172-.75 1.652 4.875c-.3-.04-.562-.001-.863.108l-12.597 4.312-25.312 8.665c-.296.109-.522.261-.75.449l-1.647-4.875 2.175-.751c.336-.115.489-.45.375-.79l-.976-2.7-1.875-5.511c-.114-.337-.45-.49-.785-.376l-2.739.937a.57.57 0 0 0-.375.751zm41.696-5.698-2.439-7.086 1.614-.562 2.438 7.086zm-34.724 19.723 28.687-9.825 9.223-3.148a.846.846 0 0 1 1.086.523l.266.79.261.785a.84.84 0 0 1-.489 1.05c.001 0-.038 0-.038.04l-37.945 12.972c-.45.149-.938-.074-1.086-.523l-.26-.79-.267-.785c-.109-.454.114-.938.563-1.09zm-4.047-14.36 1.573 4.535.864 2.551-1.614.564-1.05-3.114-1.387-4.011zm46.866 30.145-36.593-10.086a.564.564 0 0 1-.415-.75.566.566 0 0 1 .75-.41l36.598 10.086c.336.074.524.41.41.75-.035.187-.222.336-.375.41a.612.612 0 0 1-.374 0zm-29.883 10.05c-.261-.187-.336-.6-.113-.863l9.488-12.71a.607.607 0 0 1 .864-.114c.261.188.336.602.11.863l-9.485 12.711a.586.586 0 0 1-.301.227c-.188.035-.414.035-.563-.113zm23.473-31.386c.262.187.336.601.113.863l-9.489 12.711a.586.586 0 0 1-.3.227.6.6 0 0 1-.562-.075c-.262-.187-.336-.601-.11-.863l9.485-12.71c.187-.302.562-.34.863-.153zm-2.398 113.316 1.011-6.039a.663.663 0 0 0-.489-.71l-5.51-.898-6.188-1.016-6.188-1.011-6.222-1.051-12.375-2.024-5.922-.972 41.394-11.551c.148-.04.3-.149.374-.3.075-.15.114-.302.036-.45l-1.649-5.926a.566.566 0 0 0-.749-.41l-7.386 2.063-6.035 1.688-6.04 1.688-6.035 1.688-6.04 1.687-6.034 1.688-6.448 1.798a.6.6 0 0 0-.375.3c-.075.15-.114.301-.04.45l1.614 5.777-.976 5.922a.667.667 0 0 0 .488.715l45.07 7.422c.34.039.638-.188.716-.524zM97.32 274.06l1.313 4.725-3.672 1.012 1.911-5.625zm-6.484 1.8 4.61-1.274-1.91 5.625-4.614 1.274zm-6.04 1.687 4.614-1.274-1.914 5.625-4.61 1.274zm-6.034 1.687 4.61-1.273-1.911 5.626-4.612 1.273zm-6.04 1.688 4.614-1.274-1.914 5.622-4.61 1.277zm-6.074 1.687 4.614-1.274-1.914 5.62-4.61 1.278zm-6.035 1.687 4.614-1.274-1.914 5.622-4.614 1.277zm-6.148 1.723 4.762-1.31-1.915 5.622-1.5.414zm.597 11.027.79-4.84 1.535.266 2.511 5.398zm6.301 1.047-2.511-5.399 4.722.79 2.512 5.398zm6.188 1.015-2.51-5.403 4.722.79 2.511 5.398zm6.223 1.011-2.511-5.401 4.722.788 2.516 5.398zm6.188 1.013-2.51-5.399 4.722.786 2.512 5.398zm6.188 1.05-2.511-5.402 4.722.79 2.511 5.399zm6.188 1.012-2.512-5.398 4.723.785 2.512 5.398zm6.184 1.012-2.512-5.398 3.75.596-.785 4.84zm-5.66 27.45-40.723-6.677a.582.582 0 0 1-.485-.714l3.86-23.547a.582.582 0 0 1 .715-.486c.335.036.562.375.488.711l-3.79 22.95 39.52 6.449 3.79-22.95a.585.585 0 0 1 .71-.488c.34.04.563.375.489.715L93.57 331.17a.663.663 0 0 1-.71.488zm-28.837-25.762a.66.66 0 0 0-.71.488l-1.989 12.11a.667.667 0 0 0 .488.714l23.66 3.898a.66.66 0 0 0 .712-.488l1.988-12.11a.66.66 0 0 0-.488-.714zm21.075 15.898-22.461-3.676 1.8-10.91 22.461 3.676zM68.75 311.52c.035-.34.375-.563.71-.489l11.29 1.837c.336.04.562.375.484.715-.035.336-.375.563-.71.488l-11.286-1.84a.66.66 0 0 1-.488-.71zm-.488 3.863a.582.582 0 0 1 .71-.488l11.29 1.835c.336.04.562.375.488.711-.04.341-.375.564-.715.49l-11.285-1.836a.582.582 0 0 1-.488-.711zm38.246 57.328-.262-.784-2.476-7.238-2.813-8.25c-.11-.336-.45-.485-.785-.375l-2.738.937c-.336.113-.489.453-.375.79l2.811 8.25c.114.335.45.487.79.374l2.172-.75 1.652 4.875a1.7 1.7 0 0 0-.863.112l-12.597 4.309h3.786l9.225-3.147c.45-.149.938.074 1.086.523l.525 1.578a.83.83 0 0 1-.485 1.047h1.61c.187-.448.226-.972.039-1.46zm-5.7-7.647-2.437-7.086 1.614-.563 2.438 7.086zm-37.796 4.386 1.875 5.51h-1.274l-1.574-4.534-1.614.562L61.813 375h-1.274l-1.427-4.2a.63.63 0 0 1 .375-.788l2.739-.938c.335-.11.671.04.785.375zm31.46-10.16 3.673 10.76c.113.337.453.49.789.376.336-.113.488-.45.375-.79l-8.552-24.933c-.11-.336-.45-.488-.785-.375-.336.113-.489.45-.375.79l.75 2.171-28.535 9.75-.75-2.177c-.114-.336-.45-.484-.79-.375-.335.114-.484.453-.375.79l6.75 19.683h1.278l-2.028-5.886zm-32.245-1.087 28.53-9.75 3.34 9.711-28.535 9.75zm-58.16-81.367-4.047.672v-1.235l3.863-.675a6.037 6.037 0 0 1 6.972 4.949l2.926 17.023c.075.336-.151.637-.487.711-.34.08-.637-.147-.715-.483l-2.922-17.024c-.45-2.625-2.965-4.386-5.59-3.937zm-1.95 12.559-2.097.375v-1.235l2.023-.34c1.125-1.273 1.727-2.66 1.727-3.972a.59.59 0 0 1 .597-.602c.34.001.602.263.602.603-.001 1.535-.638 3.11-1.837 4.574 1.648 2.137 2.808 3.973 3.785 6.672.113.3-.04.675-.375.788-.04 0-.074.039-.113.039a.617.617 0 0 1-.676-.414c-.86-2.625-2.024-4.387-3.637-6.488zm21.711 36.148c.074.336-.148.637-.488.71l-7.61 1.313c-.34.075-.636-.148-.714-.488-.075-.336.152-.637.488-.71l3.226-.563-.375-2.25c-.074-.336.149-.637.489-.711.336-.074.636.148.71.488l.376 2.246 3.222-.562c.301 0 .64.187.676.527zm-10.047-5.586a2.027 2.027 0 0 0 2.325 1.648l4.836-.824c1.087-.186 1.837-1.237 1.65-2.323l-3-17.477a2.025 2.025 0 0 0-2.324-1.648l-4.836.824c-1.086.188-1.836 1.239-1.649 2.324l.638 3.75L.02 308.184v1.234l11.625-1.984.597 3.523L.02 313.055v1.238l12.41-2.137.898 5.25L.02 319.691v1.24l13.535-2.325zm-1.651-16.8-.15-.864a.814.814 0 0 1 .637-.938l4.836-.824a.812.812 0 0 1 .938.638l.153.863zm.225 1.198 6.41-1.085 2.665 15.375a.817.817 0 0 1-.637.937l-4.84.824a.817.817 0 0 1-.937-.636zm38.77-96.738a.654.654 0 0 1-.523.711l-7.086 1.125a.912.912 0 0 0-.75.824l-.375 6.153c-.038.336-.3.597-.636.562-.34-.039-.602-.3-.563-.64l.376-6.149c.075-.973.786-1.8 1.762-1.95l6.485-1.05-.336-2.098-7.95 1.274a2.395 2.395 0 0 0-1.988 2.21l-.49 8.363c0 .3-.222.524-.523.563h-.148c-.34-.04-.603-.301-.564-.637l.485-8.364c.114-1.688 1.352-3.075 3-3.336l8.552-1.387a.654.654 0 0 1 .71.523zm-5.586 10.875c-.114-.226-.376-.34-.638-.3l-30.449 4.874a.548.548 0 0 0-.484.485l-1.052 5.29c-.04.187.035.414.148.562.153.149.34.227.528.188l34.156-5.477c.188-.035.375-.148.453-.336a.6.6 0 0 0-.039-.562zm-31.274 9.746.789-4.011 29.62-4.762 2.028 3.562zm31.61-2.136c-.337 0-.599.3-.599.636l.41 10.125-5.246.824c-2.026-2.472-5.249-3.824-8.588-3.261-3.375.527-5.997 2.851-7.122 5.812l-5.25.824-2.777-9.75a.565.565 0 0 0-.75-.41.565.565 0 0 0-.41.75l10.2 35.696v.039s0 .035.034.035c0 .039 0 .039.04.078 0 0 0 .035.038.035l.036.04.04.034.035.038.039.04.04.035s.034 0 .034.039c.04 0 .04 0 .074.035h.266l21.11-3.375c.035 0 .074 0 .113-.035h.036c.039 0 .039-.04.074-.04 0 0 .04 0 .04-.034l.038-.04.035-.039.04-.035.035-.04.039-.035s0-.04.039-.04c0-.038 0-.038.035-.073v-.189l-1.5-37.086a.686.686 0 0 0-.675-.636zm-.11 11.96.261 6.825-3.71.601a8.878 8.878 0 0 0 .109-3.449 9.384 9.384 0 0 0-1.16-3.263zm-13.688-2.437c4.348-.71 8.473 2.29 9.149 6.637.714 4.351-2.286 8.476-6.637 9.152-4.348.71-8.473-2.29-9.149-6.637-.674-4.351 2.287-8.476 6.638-9.152zm-12.223 6.602 4.5-.715c-.265 1.09-.3 2.289-.113 3.453a9.413 9.413 0 0 0 1.16 3.262l-3.71.597zm6.899 24.257-4.688-16.496 4.164-.676c2.024 2.477 5.247 3.825 8.586 3.262 3.375-.523 6-2.847 7.125-5.812l4.162-.672.675 17.133zm-11.399-78.18L.02 203.942v-1.721l14.097-14.365c-.113-.113-.187-.261-.262-.375a4.97 4.97 0 0 1-.824-2.738 5.24 5.24 0 0 1 1.048-3.148L2.195 169.969a6.087 6.087 0 0 1-2.175 1.014v-1.238a4.056 4.056 0 0 0 1.722-1.012.607.607 0 0 1 .414-.187c.149 0 .3.074.414.187l12.672 12.41a.6.6 0 0 1 .188.415.598.598 0 0 1-.188.409c-.71.749-1.125 1.725-1.086 2.737 0 1.05.41 1.988 1.16 2.7 0 0 0 .038.04.038.222.262.222.637 0 .86zm-12.972-.824-1.914-1.875c-.228-.222-.228-.597-.001-.863.225-.222.6-.222.862 0l2.21 2.176c.153.152.228.375.153.562-.039.114-.078.227-.152.301a.598.598 0 0 1-.41.189.6.6 0 0 1-.414-.189zm4.574 4.461-2.215-2.17c-.222-.227-.222-.602 0-.864.227-.226.602-.226.863 0l2.211 2.176c.227.223.227.598 0 .86a.59.59 0 0 1-.41.187.61.61 0 0 1-.45-.189zM15.28 369.49c-.714.75-1.124 1.723-1.089 2.739.001 1.046.415 1.984 1.165 2.699 0 0 0 .035.036.035h-1.535a4.968 4.968 0 0 1-.824-2.733c.001-1.164.376-2.25 1.048-3.153l-11.883-11.62a6.145 6.145 0 0 1-2.175 1.01v-1.237a4.016 4.016 0 0 0 1.722-1.012.607.607 0 0 1 .414-.188c.149 0 .3.075.414.188l12.672 12.41a.6.6 0 0 1 .188.414c.039.147-.04.335-.149.448zm-11.737 4.91c.152.153.227.375.152.563H2.383l-1.914-1.874c-.228-.223-.228-.598-.001-.86.225-.226.6-.226.862 0zm350.629-93.289-11.55 1.988c-2.626.449-4.388 2.96-3.938 5.586l2.925 17.023c.074.336-.15.637-.489.71-.335.08-.636-.147-.71-.483l-2.926-17.024a6.04 6.04 0 0 1 4.95-6.976l11.55-1.989a6.04 6.04 0 0 1 6.973 4.953l2.926 17.02c.074.34-.153.64-.488.715-.336.074-.637-.153-.711-.488l-2.926-17.024c-.488-2.698-2.961-4.46-5.586-4.01zm-8.063 20.472c0-2.848.488-4.988 1.35-7.535-1.612-.977-2.737-2.215-3.265-3.676a.617.617 0 1 1 1.164-.413c.449 1.238 1.46 2.328 2.96 3.152l3.864-.676c1.125-1.274 1.726-2.664 1.726-3.977a.59.59 0 0 1 .598-.598.59.59 0 0 1 .601.597c0 1.54-.637 3.113-1.84 4.578 1.652 2.137 2.812 3.973 3.789 6.672.112.3-.04.676-.376.79-.04 0-.075.034-.114.034a.61.61 0 0 1-.675-.409c-.899-2.589-2.063-4.35-3.672-6.448l-3.563.598c-.828 2.511-1.312 4.574-1.312 7.312a.61.61 0 0 1-.528.602h-.11a.594.594 0 0 1-.6-.602zm21.148-23.96 7.722-1.313v1.237l-7.5 1.273c-2.625.453-4.386 2.965-3.937 5.59l2.926 17.024c.073.336-.15.636-.49.71-.335.075-.636-.148-.71-.488l-2.926-17.023c-.563-3.336 1.652-6.45 4.914-7.012zm5.887 11.21 1.835-.297v1.235l-1.46.265c-.825 2.512-1.313 4.574-1.313 7.309a.61.61 0 0 1-.527.601h-.11a.592.592 0 0 1-.601-.601c-.001-2.848.487-4.985 1.35-7.535-1.613-.978-2.738-2.212-3.261-3.677a.606.606 0 0 1 .374-.785.608.608 0 0 1 .785.375c.413 1.199 1.46 2.285 2.925 3.11zm-32.399 46.086 3.227-.563-.375-2.25c-.075-.34.148-.636.488-.714.336-.074.637.153.71.489l.376 2.249 3.223-.564c.34-.074.64.149.714.489.074.336-.153.636-.489.71l-7.612 1.313c-.336.074-.637-.148-.711-.488-.113-.297.113-.637.45-.672zm24.86-4.277 3.226-.562-.375-2.25c-.074-.336.148-.637.488-.71.336-.075.637.148.711.487l.375 2.25 3.228-.562c.336-.074.637.148.71.488.075.337-.148.638-.488.712l-7.609 1.313c-.339.074-.64-.149-.714-.489-.113-.3.114-.636.45-.675zm4.09-25.421c-.188-1.087-1.24-1.837-2.325-1.65l-4.839.825c-1.085.187-1.835 1.238-1.647 2.324l.637 3.749-16.047 2.772-.637-3.75a2.03 2.03 0 0 0-2.328-1.648l-4.836.824c-1.086.187-1.836 1.238-1.649 2.324l3 17.477a2.027 2.027 0 0 0 2.325 1.647l4.836-.824a2.026 2.026 0 0 0 1.648-2.324l-.223-1.353 16.046-2.773.227 1.347c.187 1.091 1.238 1.841 2.324 1.654l4.836-.828a2.027 2.027 0 0 0 1.652-2.325l-.226-1.346 2.51-.414v-1.239l-2.699.455-.897-5.25 3.597-.637v-1.238l-3.824.636-.597-3.523 4.42-.75v-1.238l-4.648.785zm-6.938.413 4.836-.824a.808.808 0 0 1 .937.635l.154.864-6.414 1.085-.149-.864c-.112-.409.189-.823.638-.897zm-1.012 6.074.598 3.523-16.047 2.774-.602-3.524zm-24.523-.902a.817.817 0 0 1 .636-.938l4.835-.824a.812.812 0 0 1 .938.637l.152.863-6.414 1.09zm8.773 17.289-4.836.824c-.45.074-.863-.227-.937-.637l-2.664-15.374 6.413-1.086 2.66 15.371c.078.415-.223.826-.637.904zm1.426-3.676-.899-5.25 16.047-2.773.899 5.25zm24.07-1.5a.808.808 0 0 1-.637.937l-4.835.825c-.45.074-.864-.227-.938-.637l-2.66-15.375 6.41-1.086zm-37.793-78.89a.656.656 0 0 0-.716.523l-1.91 12.036c-.074.375-.488.602-.937.527l-34.012-5.402c-.45-.073-.785-.41-.71-.784l2.1-13.125a.657.657 0 0 0-.527-.71.654.654 0 0 0-.71.523l-2.102 13.125c-.149 1.012.601 2.024 1.726 2.211l4.95.788v.035l3.222 3.864s.04 0 .04.039l.038.035.035.04.04.035c.035 0 .035.04.074.04h.04c.035 0 .074.038.11.038l15.788 2.512h.263c.035 0 .035 0 .074-.04 0 0 .04 0 .04-.034h.034l4.274-2.663.039-.04 4.95.79c1.125.187 2.176-.524 2.324-1.54l1.914-12.034c.075-.41-.152-.75-.449-.786zm-13.462 15.035-15.336-2.438-2.215-2.664 20.473 3.263zm-4.199-28.797c.483-5.512-3.642-10.387-9.153-10.875a10.093 10.093 0 0 0-7.348 2.325c-2.063 1.726-3.302 4.164-3.524 6.824a10.065 10.065 0 0 0 8.433 10.8c.226.035.487.074.714.074 5.547.488 10.422-3.637 10.875-9.148zm-10.763 7.91c-4.84-.41-8.437-4.688-8.027-9.563.188-2.36 1.312-4.46 3.113-5.996 1.801-1.5 4.086-2.25 6.45-2.027.226 0 .414.039.636.074 4.538.715 7.8 4.84 7.386 9.488-.41 4.836-4.723 8.473-9.559 8.024zm36.145-5.363c1.05-6.637-3.488-12.934-10.125-13.985-6.637-1.05-12.934 3.488-13.984 10.125-1.051 6.637 3.488 12.934 10.125 13.984 6.671 1.09 12.933-3.488 13.984-10.124zm-13.797 8.925c-6-.937-10.09-6.597-9.113-12.562.937-6 6.597-10.086 12.562-9.11 6 .938 10.086 6.598 9.11 12.56-.938 5.964-6.563 10.089-12.56 9.112zm-28.312 6.188c-.188 1.273.675 2.512 1.949 2.7 1.277.186 2.515-.677 2.703-1.95.187-1.278-.676-2.512-1.953-2.7a2.322 2.322 0 0 0-2.7 1.95zm3.449.562c-.11.598-.672 1.051-1.313.938-.598-.113-1.048-.676-.934-1.313.11-.601.672-1.05 1.308-.937.602.113 1.016.676.938 1.312zm1.988.301c-.188 1.273.676 2.51 1.95 2.698 1.277.188 2.51-.676 2.698-1.949.188-1.278-.671-2.517-1.949-2.704a2.393 2.393 0 0 0-2.7 1.953zm3.45.562c-.11.597-.673 1.046-1.313.937-.598-.114-1.047-.677-.938-1.313.112-.602.675-1.051 1.312-.938.64.108 1.05.67.937 1.312zm5.136 2.734 1.914-11.96c.04-.337.375-.564.71-.524l2.813.449c.34.04.563.376.528.712-.038.34-.374.562-.714.527l-2.21-.34-1.728 10.76 12.938 2.063 1.352-8.433c.035-.34.375-.563.71-.527.336.039.563.374.524.714l-1.422 9.036c-.04.335-.375.562-.715.523l-14.137-2.25a.692.692 0 0 1-.562-.75zm21.035 2.137c.04-.336.376-.559.716-.524l2.25.374H337.485c.04 0 .04 0 .04.04l.035.034.038.04.039.035h.035l6.113 6.828 3.149-19.726-7.91 4.653h-.04s-.035 0-.035.035c-.04 0-.04 0-.079.039h-.261l-2.25-.374c-.337-.04-.563-.375-.524-.711.035-.34.375-.563.71-.527l2.063.34 8.85-5.141h.036c.04 0 .04 0 .074-.035 0 0 .04 0 .04-.04h.411s.039 0 .039.04c.038 0 .038 0 .038.035l.035.039.039.039.035.035.04.04.038.034V239.902c0 .036.035.036.035.075v.375l-3.523 22.234v.113s0 .034-.04.034c0 0 0 .04-.034.04l-.04.039-.035.035-.039.039v.035h-.04c-.035 0-.035.039-.074.039 0 0-.035 0-.035.04-.038 0-.038.035-.077.035h-.262c-.034 0-.073 0-.112-.035h-.035c-.04 0-.04-.04-.075-.04 0 0-.039 0-.039-.038l-.04-.035-.035-.04-.039-.034-6.824-7.614-2.063-.337c-.301 0-.524-.3-.489-.64zm-43.155-19.196-1.2 7.575 3-1.727a.574.574 0 0 1 .825.227c.187.3.074.675-.227.824l-4.086 2.363h-.039s-.035 0-.035.034c-.039 0-.039 0-.074.04h-.267c-.035 0-.074 0-.11-.04h-.038c-.04 0-.074-.035-.074-.035s-.038 0-.038-.04c-.036 0-.036-.035-.075-.035l-.039-.04c0-.038-.035-.038-.035-.073v-.075c0-.039-.039-.039-.039-.078 0 0 0-.036-.035-.036l-.001-.074-.001-.078-.001-.074-.001-.075-.001-.039 1.608-10.12v-.114s0-.04.04-.04c0 0 0-.034.038-.034l.036-.04.039-.038.036-.036v-.039h.039l.039-.035.035-.039s.038 0 .038-.04c0 0 .035 0 .074-.035h.415c.035 0 .035 0 .035.035l.039.04.036.038.039.035h.039l3.148 3.528a.632.632 0 0 1-.039.86c-.148.113-.336.188-.488.152-.148-.039-.262-.074-.375-.187zm21.41 26.36-2.25 14.062c-.04.335-.375.562-.71.523-.34-.04-.563-.375-.528-.711l2.25-14.063c.039-.337.375-.563.715-.524.336.074.562.41.523.71zm-2.29 0-12.522 12.41c-.149.152-.336.187-.524.187a.714.714 0 0 1-.337-.187.633.633 0 0 1 0-.863l12.524-12.41a.636.636 0 0 1 .859 0c.266.261.266.636 0 .863zm12.376 15.672a.61.61 0 0 1-.26.823c-.114.078-.263.078-.376.078a.678.678 0 0 1-.45-.339l-8.061-15.67a.61.61 0 1 1 1.086-.562zm-74.128-109.677c-.113-.336-.45-.488-.79-.375-.335.113-.487.45-.374.789l6.75 19.683 1.8 5.29c.114.335.45.484.786.375.34-.114.488-.454.375-.79l-1.689-4.875-2.022-5.886 28.535-9.75 3.676 10.761c.108.34.448.489.784.375.34-.109.488-.449.375-.785l-8.548-24.972c-.113-.34-.453-.489-.789-.375-.336.113-.488.449-.375.785l.75 2.176-28.535 9.749zm29.66-6.41 3.336 9.71-28.535 9.75-3.336-9.714zm-31.648 22.308 1.426 4.2 1.386 4.086 2.477 7.239.262.789.261.785a2.048 2.048 0 0 0 2.625 1.276l37.947-12.976c.601-.188 1.011-.637 1.238-1.16.187-.45.223-.977.035-1.465l-.262-.825-.261-.785-2.473-7.238-2.813-8.25c-.112-.336-.452-.488-.788-.375l-2.738.938c-.336.113-.484.449-.375.789l2.812 8.249c.113.335.449.483.789.374l2.176-.75 1.649 4.875c-.3-.04-.563-.001-.863.108l-12.598 4.312-25.309 8.665c-.3.109-.527.261-.75.449l-1.652-4.875 2.176-.751c.335-.115.487-.45.374-.79l-.977-2.7-1.875-5.511c-.11-.337-.45-.49-.785-.376l-2.738.937c-.337.115-.49.45-.376.751zm41.695-5.698-2.438-7.086 1.613-.562 2.437 7.086zm-34.72 19.723 28.684-9.825 9.223-3.148a.852.852 0 0 1 1.09.523l.261.79.262.785a.836.836 0 0 1-.488 1.05s-.036 0-.036.04l-37.949 12.972c-.45.149-.937-.074-1.086-.523l-.26-.79-.262-.785c-.113-.454.11-.938.562-1.09zm-4.05-14.36 1.574 4.535.863 2.551-1.613.564-1.05-3.114-1.388-4.011zm46.87 30.145-36.597-10.086c-.336-.074-.523-.41-.414-.75a.567.567 0 0 1 .749-.41l36.597 10.086c.336.074.523.41.414.75-.038.187-.226.336-.374.41a.61.61 0 0 1-.375 0zm-29.886 10.05c-.262-.187-.336-.6-.113-.863l9.489-12.71c.186-.262.6-.337.862-.114.262.188.336.602.113.863l-9.488 12.711a.586.586 0 0 1-.3.227c-.188.035-.41.035-.563-.113zm23.473-31.386c.261.187.34.601.113.863l-9.488 12.711a.593.593 0 0 1-.297.227.597.597 0 0 1-.563-.075c-.265-.187-.34-.601-.113-.863l9.483-12.71c.188-.302.563-.34.864-.153zm-2.399 113.316 1.012-6.039a.66.66 0 0 0-.488-.71l-5.512-.898-6.188-1.016-6.187-1.011-6.223-1.051-12.375-2.024-5.922-.972 41.395-11.551c.148-.04.3-.149.375-.3.074-.15.113-.302.039-.45l-1.652-5.926a.565.565 0 0 0-.75-.41l-7.387 2.063-6.035 1.688-6.04 1.688-12.07 3.375-6.039 1.688-6.448 1.798a.61.61 0 0 0-.375.3c-.074.15-.113.301-.04.45l1.614 5.777-.971 5.922c-.04.34.186.637.483.715l45.07 7.422c.34.039.64-.188.715-.524zm-2.773-31.011 1.308 4.725-3.672 1.012 1.912-5.625zm-6.489 1.8 4.614-1.274-1.914 5.625-4.614 1.274zm-6.039 1.687 4.614-1.274-1.91 5.625-4.613 1.274zm-6.035 1.687 4.613-1.273-1.914 5.626-4.612 1.273zm-6.035 1.688 4.61-1.274-1.91 5.622-4.614 1.277zm-6.078 1.687 4.612-1.274-1.91 5.62-4.613 1.278zm-6.036 1.687 4.613-1.274-1.914 5.622-4.613 1.277zm-6.149 1.723 4.762-1.31-1.914 5.622-1.5.414zm.598 11.027.79-4.84 1.538.266 2.513 5.398zm6.3 1.047-2.51-5.399 4.722.79 2.515 5.398zm6.188 1.015-2.51-5.403 4.722.79 2.512 5.398zm6.224 1.011-2.512-5.401 4.727.788 2.51 5.398zm6.187 1.013-2.51-5.399 4.722.786 2.516 5.398zm6.189 1.05-2.513-5.402 4.723.79 2.512 5.399zm6.186 1.012-2.511-5.398 4.722.785 2.512 5.398zm6.188 1.012-2.512-5.398 3.746.596-.785 4.84zm-5.664 27.45-40.719-6.677c-.339-.039-.561-.375-.487-.714l3.863-23.547c.035-.337.375-.564.71-.486.337.036.564.375.49.711l-3.79 22.95 39.524 6.449 3.785-22.95c.039-.335.375-.562.715-.488.336.04.562.375.484.715l-3.86 23.548a.667.667 0 0 1-.714.488zm-28.832-25.762a.66.66 0 0 0-.715.488l-1.988 12.11a.667.667 0 0 0 .488.714l23.66 3.898c.34.04.637-.187.715-.488l1.984-12.11a.662.662 0 0 0-.484-.714zm21.07 15.898-22.46-3.676 1.8-10.91 22.46 3.676zM256.23 311.52a.582.582 0 0 1 .711-.489l11.29 1.837c.336.04.563.375.489.715-.04.336-.376.563-.716.488l-11.285-1.84a.66.66 0 0 1-.49-.71zm-.488 3.863c.04-.34.375-.563.715-.488l11.285 1.835c.336.04.563.375.488.711-.039.341-.375.564-.714.49l-11.286-1.836a.585.585 0 0 1-.488-.711zm85.117-145.79c.074-.335.374-.523.71-.484l3.04.597c.335.074.523.375.488.715-.04.297-.301.484-.602.484h-.113l-3.035-.597c-.375-.076-.563-.415-.489-.716zm5.812 1.126c.074-.337.375-.525.71-.486l3.04.598c.336.074.523.375.488.715-.039.297-.3.484-.601.484l-.115.001-3.035-.596c-.34-.075-.527-.375-.488-.715zm5.848 1.163c.078-.336.375-.524.714-.488l3.036.601c.34.074.527.375.488.71-.04.302-.3.49-.602.49h-.11l-3.038-.602c-.336-.074-.524-.375-.488-.711zm5.851 1.164c.075-.34.376-.527.712-.488l3.04.596c.335.078.523.375.487.715-.04.302-.301.49-.602.49h-.113l-3.036-.602c-.34-.074-.528-.414-.489-.711zm15.638-3.152c.336 0 .672-.036.972-.149v1.238c-.3.075-.636.11-.972.11a5.242 5.242 0 0 1-3.153-1.047l-2.25 2.285c-.222.227-.597.227-.859 0-.226-.223-.226-.598 0-.863l2.66-2.7a.6.6 0 0 1 .414-.188c.149 0 .297.074.41.188.75.75 1.727 1.125 2.778 1.125zm-4.012 8.699c.223.226.223.601 0 .863a.607.607 0 0 1-.414.188.607.607 0 0 1-.414-.188l-2.21-2.176c-.228-.221-.228-.596 0-.862.226-.223.6-.223.862 0zm3.41 5.023-2.21-2.172c-.227-.226-.227-.601 0-.863.222-.227.597-.227.859 0l2.215 2.176c.222.222.222.597 0 .86a.6.6 0 0 1-.415.187c-.187-.035-.335-.075-.449-.188zm-33.82-22.347-5.176 26.21-2.137 10.836c-.039.153 0 .301.075.454.074.148.226.222.375.261 1.011.189 1.875.786 2.476 1.65.562.863.784 1.875.597 2.886-.035.153 0 .301.074.45.08.152.228.226.376.265l17.438 3.411.113.001a.63.63 0 0 0 .598-.487 3.852 3.852 0 0 1 4.539-3.035c.336.074.636-.152.71-.488l3.188-16.2 4.086-20.808c.04-.152 0-.3-.074-.45-.074-.152-.223-.226-.375-.265-1.013-.187-1.876-.785-2.474-1.648-.562-.865-.79-1.876-.601-2.888.039-.152 0-.3-.075-.45-.074-.152-.226-.226-.375-.265l-17.437-3.41c-.336-.074-.637.148-.711.488a3.852 3.852 0 0 1-4.54 3.035c-.296-.074-.636.153-.671.45zm1.047.789c2.328.186 4.465-1.275 5.215-3.49l16.308 3.188c-.074 1.125.188 2.25.864 3.187.636.938 1.574 1.653 2.625 1.989l-4.051 20.546-3.035 15.41c-2.326-.187-4.462 1.278-5.212 3.489l-16.313-3.189c.074-1.124-.187-2.249-.863-3.186a5.03 5.03 0 0 0-2.66-1.984l2.062-10.5zm.64 24.557c-.039.3-.078.563-.113.863-.3 3.676 2.211 7.086 5.926 7.801.484.115.934.15 1.422.15 3.45 0 6.527-2.438 7.238-5.961a9.08 9.08 0 0 0 .113-1.99 7.544 7.544 0 0 0-1.239-3.523c-1.085-1.648-2.772-2.738-4.686-3.113-3.973-.824-7.875 1.8-8.66 5.773zm7.235-4.722c.375 0 .789.039 1.2.113 1.612.3 3 1.238 3.937 2.625.601.86.937 1.836 1.015 2.887.035.597.035 1.16-.078 1.761-.637 3.337-3.898 5.513-7.234 4.876-3.153-.601-5.25-3.523-4.95-6.636.036-.188.036-.415.075-.602a6.13 6.13 0 0 1 6.035-5.023zm14.96 32.097 11.512-11.773v1.721l-11.062 11.287c-.223.226-.598.226-.86 0a3.863 3.863 0 0 0-5.476.078.615.615 0 0 1-.41.187.617.617 0 0 1-.414-.187l-5.399-5.29c-.227-.222-.227-.597 0-.863.222-.222.597-.222.863 0l5.023 4.914c1.762-1.46 4.387-1.5 6.223-.074zm4.126-13.613c1.164-1.161 1.761-2.735 1.761-4.388 0-1.648-.671-3.187-1.835-4.347-.825-.79-1.801-1.352-2.926-1.614a.593.593 0 0 1-.45-.71.593.593 0 0 1 .711-.453c1.313.3 2.516.977 3.489 1.914 1.426 1.388 2.176 3.224 2.215 5.177.034 1.984-.716 3.824-2.103 5.246a7.37 7.37 0 0 1-5.285 2.215c-.375 0-.75-.04-1.164-.074-.336-.04-.563-.375-.488-.676a.565.565 0 0 1 .675-.488 6.248 6.248 0 0 0 5.399-1.801zm-73.606 172.33-.261-.784-2.473-7.238-2.813-8.25c-.112-.336-.452-.485-.788-.375l-2.738.937c-.336.113-.484.453-.375.79l2.812 8.25c.113.335.449.487.789.374l2.176-.75 1.649 4.875a1.7 1.7 0 0 0-.863.112l-12.598 4.309h3.785l9.226-3.147c.449-.149.937.074 1.086.523l.261.79.266.788a.837.837 0 0 1-.49 1.047h1.61c.188-.448.227-.972.04-1.46zm-5.699-7.647-2.438-7.086 1.613-.563 2.437 7.086zm-37.798 4.386 1.875 5.51h-1.273l-1.574-4.534-1.614.562 1.387 4.012h-1.273l-1.426-4.2a.63.63 0 0 1 .375-.788l2.737-.938c.336-.11.676.04.785.375zm31.461-10.16 3.676 10.76c.108.337.448.49.784.376.34-.113.488-.45.375-.79l-8.548-24.933c-.113-.336-.453-.488-.789-.375-.336.113-.488.45-.375.79l.75 2.171-28.535 9.75-.75-2.177c-.113-.336-.45-.484-.785-.375-.34.114-.488.453-.375.79l6.746 19.683h1.276l-2.023-5.886zm-32.246-1.087 28.535-9.75 3.336 9.711-28.535 9.75zm117.21-4.05-4.085 20.808h-1.238l4.011-20.507c-1.085-.34-1.984-1.05-2.62-1.988a5.058 5.058 0 0 1-.864-3.188l-16.311-3.187a5.077 5.077 0 0 1-5.212 3.488L335.609 375h-1.239l5.142-26.21c.074-.337.37-.524.71-.49a3.845 3.845 0 0 0 4.536-3.034c.078-.336.375-.524.715-.489l17.433 3.414c.153.037.3.11.375.263a.64.64 0 0 1 .08.45c-.188 1.01 0 2.023.597 2.886.563.862 1.46 1.425 2.477 1.651.148.037.296.11.375.263.108.113.147.262.108.45zm-12.296 17.284a7.698 7.698 0 0 1 1.24 3.524h-1.2c-.078-1.01-.453-1.983-1.015-2.886-.938-1.387-2.325-2.285-3.938-2.625a6.522 6.522 0 0 0-1.2-.11c-2.886 0-5.472 2.058-6.073 4.984a3.516 3.516 0 0 0-.075.602h-1.2c.035-.3.074-.563.113-.863.786-3.973 4.649-6.598 8.66-5.813a7.394 7.394 0 0 1 4.688 3.188zM341.31 357.75c-.337-.074-.525-.375-.49-.71.078-.337.375-.524.715-.49l3.035.602c.34.075.528.375.489.711-.037.301-.302.489-.6.489h-.112zm5.85 1.164c-.34-.074-.527-.375-.488-.71.074-.34.375-.528.71-.49l3.04.599c.336.078.523.375.488.714-.039.301-.3.489-.601.489h-.115zm9.598 1.273c-.04.301-.3.489-.602.489h-.11l-3.038-.598c-.336-.078-.524-.375-.488-.715.078-.336.375-.523.714-.488l3.036.602c.34.074.562.375.488.71zm5.137 1.614-3.036-.597c-.34-.078-.528-.375-.489-.715.075-.336.376-.523.712-.488l3.04.602c.335.074.523.375.487.71-.04.301-.301.489-.602.489-.04.04-.074 0-.113 0zm12.113-4.425c.336 0 .672-.035.972-.148v1.238c-.3.074-.636.113-.972.113a5.22 5.22 0 0 1-3.153-1.05l-2.25 2.284c-.222.227-.597.227-.859 0-.226-.222-.226-.597 0-.859l2.66-2.703a.617.617 0 0 1 .414-.188c.149 0 .297.079.41.188.75.75 1.727 1.125 2.778 1.125zm-4.012 8.7c.223.226.223.6 0 .862a.607.607 0 0 1-.414.188.607.607 0 0 1-.414-.188l-2.21-2.175c-.228-.223-.228-.598 0-.86.226-.226.6-.226.862 0zm4.234 4.163c.227.227.227.602 0 .864a.615.615 0 0 1-.41.187.617.617 0 0 1-.414-.188l-2.21-2.176c-.227-.227-.227-.602 0-.863.222-.223.597-.223.859 0zM166.691 281.11l-11.55 1.988c-2.624.449-4.386 2.96-3.937 5.586l2.926 17.023c.073.336-.153.637-.49.71-.335.08-.636-.147-.71-.483l-2.926-17.024a6.038 6.038 0 0 1 4.95-6.976l11.55-1.989a6.04 6.04 0 0 1 6.973 4.953l2.925 17.02c.075.34-.152.64-.488.715-.336.074-.637-.153-.71-.488l-2.927-17.024c-.488-2.698-2.964-4.46-5.586-4.01zm-8.061 20.472c-.001-2.848.487-4.988 1.347-7.535-1.61-.977-2.735-2.215-3.262-3.676a.614.614 0 0 1 .375-.788c.3-.11.676.04.789.375.448 1.238 1.46 2.328 2.96 3.152l3.863-.676c1.125-1.274 1.723-2.664 1.723-3.977 0-.336.265-.598.601-.598.336 0 .602.261.602.597-.001 1.54-.642 3.113-1.84 4.578 1.651 2.137 2.812 3.973 3.788 6.672.11.3-.039.676-.375.79-.039 0-.078.034-.113.034a.61.61 0 0 1-.676-.409c-.898-2.589-2.062-4.35-3.676-6.448l-3.562.598c-.824 2.511-1.309 4.574-1.309 7.312a.61.61 0 0 1-.527.602h-.113a.594.594 0 0 1-.598-.602zm42.632-4.012c.074.336-.153.637-.489.711-.335.08-.636-.147-.71-.483l-2.926-17.024c-.45-2.625-2.961-4.386-5.586-3.937l-4.05.71-7.5 1.274c-2.625.453-4.387 2.965-3.938 5.59l2.926 17.024c.074.336-.148.636-.488.71-.336.075-.637-.148-.71-.488l-2.927-17.023a6.037 6.037 0 0 1 4.95-6.973l7.726-1.312 3.858-.676a6.04 6.04 0 0 1 6.977 4.95zm-8.774-13.386c0 1.539-.64 3.113-1.84 4.574 1.653 2.137 2.813 3.976 3.79 6.676a.61.61 0 0 1-.376.785c-.039-.001-.074.038-.113.038a.613.613 0 0 1-.677-.414c-.898-2.586-2.062-4.348-3.671-6.45l-2.102.376-1.46.265c-.83 2.512-1.313 4.574-1.313 7.309a.61.61 0 0 1-.528.601h-.114a.59.59 0 0 1-.598-.601c0-2.848.489-4.985 1.348-7.535-1.61-.978-2.734-2.212-3.262-3.677-.11-.3.04-.676.375-.785a.61.61 0 0 1 .788.375c.45 1.234 1.461 2.324 2.961 3.148l1.84-.3 2.023-.336c1.124-1.277 1.726-2.664 1.726-3.976a.59.59 0 0 1 .597-.598c.336-.074.601.188.601.524zm-39.222 50.734 3.226-.563-.375-2.25c-.078-.34.149-.636.485-.714.34-.074.64.153.714.489l.375 2.249 3.224-.564c.34-.074.637.149.715.489.073.336-.153.636-.49.71l-7.613 1.313c-.336.074-.636-.148-.71-.488-.114-.297.113-.637.449-.672zm24.86-4.277 3.226-.562-.375-2.25c-.075-.336.148-.637.488-.71.336-.075.637.148.71.487l.376 2.25 3.223-.562c.34-.074.641.148.715.488.074.337-.152.638-.488.712l-7.613 1.313c-.336.074-.637-.149-.711-.489-.113-.3.113-.636.45-.675zm33.183-5.097c.077.336-.15.637-.486.71l-7.613 1.313c-.335.075-.636-.148-.71-.488-.078-.336.148-.637.484-.71l3.227-.563-.374-2.25c-.074-.336.148-.637.488-.711.336-.074.637.148.711.488l.375 2.246 3.227-.562c.297 0 .636.187.672.527zm-10.275-6.938.227 1.352c.187 1.086 1.238 1.836 2.324 1.648l4.836-.824c1.09-.186 1.84-1.237 1.652-2.323l-3-17.477c-.187-1.085-1.238-1.835-2.324-1.648l-4.84.824c-1.086.188-1.836 1.239-1.648 2.324l.636 3.75-11.398 1.954-4.648.785-.637-3.751a2.03 2.03 0 0 0-2.328-1.65l-4.836.825c-1.085.187-1.835 1.238-1.648 2.324l.637 3.749-16.048 2.772-.64-3.75a2.027 2.027 0 0 0-2.325-1.648l-4.836.824c-1.085.187-1.835 1.238-1.647 2.324l3 17.477a2.027 2.027 0 0 0 2.324 1.647l4.836-.824c1.086-.188 1.836-1.238 1.649-2.324l-.223-1.353 16.046-2.773.226 1.347a2.027 2.027 0 0 0 2.325 1.654l4.835-.828a2.027 2.027 0 0 0 1.649-2.325l-.222-1.346 2.512-.414zm7.836.04a.81.81 0 0 1-.636.937l-4.836.824c-.449.074-.863-.226-.937-.636l-2.663-15.375 6.414-1.086zm-8.733-17.29 4.836-.824c.449-.073.863.228.937.638l.152.863-6.414 1.091-.148-.862c-.113-.414.188-.824.637-.903zm-12.637 8.063 11.625-1.984.598 3.523-12.223 2.098-3.824.64-.602-3.527zm-12.223-3.785 4.836-.824a.808.808 0 0 1 .938.635l.15.864-6.41 1.085-.15-.864c-.113-.409.188-.823.637-.897zm-1.011 6.074.597 3.523-16.047 2.774-.601-3.524zm-24.524-.902a.814.814 0 0 1 .637-.938l4.835-.824c.45-.074.863.227.937.637l.153.863-6.414 1.09zm8.774 17.289-4.836.824a.812.812 0 0 1-.938-.637l-2.664-15.374 6.414-1.086 2.66 15.371c.075.415-.222.826-.636.904zm1.425-3.676-.9-5.25 16.05-2.773.898 5.25zm23.435-.602-4.836.825a.808.808 0 0 1-.938-.636l-2.665-15.371 6.415-1.09 2.66 15.375a.79.79 0 0 1-.637.898zm1.426-3.636-.902-5.25 3.602-.637 12.41-2.137.902 5.25-13.351 2.285zm53.805-112.563a.654.654 0 0 1-.523.711l-7.086 1.125a.912.912 0 0 0-.75.824l-.375 6.153c-.038.336-.3.597-.636.562-.34-.039-.601-.3-.562-.64l.375-6.149c.074-.973.785-1.8 1.762-1.95l6.487-1.05-.34-2.098-7.95 1.274a2.4 2.4 0 0 0-1.987 2.21l-.485 8.363c0 .3-.226.524-.527.563h-.149c-.34-.04-.602-.301-.563-.637l.488-8.364c.11-1.688 1.348-3.075 3-3.336l8.547-1.387c.34-.04.637.187.71.523zm-5.585 10.875c-.114-.226-.375-.34-.637-.3l-30.445 4.874a.55.55 0 0 0-.489.485l-1.052 5.29c-.039.187.04.414.149.562.152.149.34.227.527.188l34.16-5.477c.188-.035.375-.148.45-.336a.6.6 0 0 0-.04-.562zm-31.27 9.746.785-4.011 29.621-4.762 2.028 3.562zm31.61-2.136c-.34 0-.602.3-.602.636l.414 10.125-5.25.824c-2.027-2.472-5.25-3.824-8.586-3.261-3.375.527-6 2.851-7.125 5.812l-5.25.824-2.773-9.75a.567.567 0 0 0-.75-.41.564.564 0 0 0-.414.75l10.16 35.66v.036s0 .039.04.039c0 .035 0 .035.039.074 0 0 0 .04.035.04l.039.035.035.04.04.034.04.038.034.04s.04 0 .04.035c.035 0 .035 0 .074.039h.262l21.109-3.375c.038 0 .077 0 .112-.04h.04c.034 0 .034-.034.073-.034 0 0 .04 0 .04-.04l.035-.039.039-.035.034-.04.039-.035.039-.04s0-.038.035-.038c0-.035 0-.035.04-.074V263.784l-1.5-37.082c0-.34-.302-.601-.638-.601zm-.114 11.96.262 6.825-3.711.601c.262-1.086.3-2.289.113-3.449a9.39 9.39 0 0 0-1.164-3.263zm-13.687-2.437c4.35-.71 8.475 2.29 9.147 6.637.715 4.351-2.285 8.476-6.637 9.152-4.347.71-8.472-2.29-9.148-6.637-.676-4.351 2.289-8.476 6.637-9.152zm-12.224 6.602 4.5-.715a8.898 8.898 0 0 0-.113 3.453 9.418 9.418 0 0 0 1.164 3.262l-3.715.597zm6.898 24.257-4.687-16.496 4.164-.676c2.024 2.477 5.25 3.825 8.587 3.262 3.375-.523 6-2.847 7.125-5.812l4.16-.672.676 17.133zm-60.406-96.214c-.336-.075-.523-.375-.488-.711.074-.341.375-.529.715-.49l3.035.602c.34.074.527.375.488.71-.039.302-.3.49-.601.49h-.11zm5.363.449c.076-.337.376-.525.712-.486l3.04.598c.335.074.523.375.484.715-.035.297-.297.484-.598.484l-.113.001-3.035-.596c-.34-.075-.528-.375-.489-.715zm5.85 1.163c.073-.336.374-.524.714-.488l3.035.601c.335.074.523.375.487.71-.039.302-.3.49-.601.49h-.113l-3.036-.602c-.336-.074-.523-.375-.488-.711zm5.85 1.164c.075-.34.376-.527.712-.488l3.039.596c.337.078.524.375.485.715-.035.302-.297.49-.598.49h-.113l-3.04-.602c-.335-.074-.522-.414-.483-.711zm11.622 5.547c.226.226.226.601 0 .863a.59.59 0 0 1-.41.188.6.6 0 0 1-.415-.188l-2.21-2.176c-.227-.221-.227-.596 0-.862.222-.223.597-.223.863 0zm3.414 5.023-2.215-2.172c-.222-.226-.222-.601 0-.863.227-.227.602-.227.864 0l2.215 2.176c.222.222.222.597 0 .86a.607.607 0 0 1-.415.187c-.188-.035-.336-.075-.45-.188zm-19.574 24.035a.635.635 0 0 0 .601-.484 3.85 3.85 0 0 1 4.535-3.04c.34.075.637-.148.715-.487l3.188-16.195 4.087-20.812a.66.66 0 0 0-.075-.45.548.548 0 0 0-.375-.261c-1.015-.188-1.875-.79-2.476-1.652-.562-.86-.788-1.875-.6-2.887.038-.149 0-.3-.075-.45-.074-.148-.223-.226-.375-.261l-17.434-3.414c-.34-.074-.636.152-.714.488a3.85 3.85 0 0 1-4.536 3.04c-.34-.08-.636.148-.71.484l-5.176 26.21-2.137 10.836c-.04.153 0 .301.074.454.074.148.223.222.375.261 1.012.189 1.875.786 2.473 1.65.562.863.789 1.875.601 2.886-.039.153 0 .301.075.45.075.152.227.226.376.265l17.437 3.411c.074-.038.113-.038.149-.038zm-16.762-4.46c.078-1.126-.188-2.25-.86-3.188a5.055 5.055 0 0 0-2.664-1.984l2.063-10.5 4.987-25.422c2.324.187 4.461-1.278 5.211-3.489l16.313 3.187c-.077 1.125.188 2.25.86 3.187a5.052 5.052 0 0 0 2.664 1.989l-4.05 20.507-3.036 15.41c-2.328-.187-4.465 1.278-5.215 3.489zm18.785-15.712a7.496 7.496 0 0 0-1.234-3.523c-1.09-1.648-2.777-2.738-4.687-3.113-3.976-.785-7.875 1.84-8.664 5.812-.036.3-.075.563-.11.864-.301 3.675 2.21 7.085 5.922 7.796.488.114.937.153 1.425.153 3.45-.001 6.524-2.439 7.239-5.962a6.17 6.17 0 0 0 .11-2.028zm-1.273 1.762c-.637 3.34-3.899 5.512-7.235 4.875-3.152-.597-5.25-3.523-4.953-6.637.04-.187.04-.41.078-.597.563-2.926 3.149-4.988 6.074-4.988.375 0 .786.039 1.2.113 1.613.3 3 1.238 3.937 2.625a5.7 5.7 0 0 1 1.012 2.887c.039.562 0 1.125-.113 1.722zm13.011 11.137c1.164-1.161 1.762-2.735 1.762-4.388 0-1.648-.676-3.187-1.836-4.347-.825-.79-1.802-1.352-2.927-1.614a.593.593 0 0 1-.449-.71.59.59 0 0 1 .71-.453c1.314.3 2.513.977 3.49 1.914 1.425 1.388 2.175 3.224 2.21 5.177.04 1.984-.71 3.824-2.097 5.246a7.373 7.373 0 0 1-5.29 2.215c-.374 0-.75-.04-1.16-.074a.565.565 0 0 1-.488-.676.565.565 0 0 1 .675-.488 6.25 6.25 0 0 0 5.398-1.801zm22.723-12.075L187.5 203.94l-11.062 11.287c-.223.226-.598.226-.86 0a3.863 3.863 0 0 0-5.476.078.617.617 0 0 1-.415.187.615.615 0 0 1-.41-.187l-5.398-5.29c-.228-.222-.228-.597-.001-.863.222-.222.597-.222.858 0l5.028 4.914c1.796-1.46 4.421-1.5 6.261-.074l11.512-11.773 14.097-14.4c-.114-.113-.188-.265-.262-.375a4.994 4.994 0 0 1-.828-2.738 5.2 5.2 0 0 1 1.05-3.148l-11.886-11.626c-.636.488-1.347.863-2.136 1.011-.3.075-.637.114-.972.114a5.22 5.22 0 0 1-3.153-1.052l-2.25 2.289c-.223.223-.598.223-.86 0-.227-.227-.227-.602 0-.863l2.66-2.7a.6.6 0 0 1 .414-.187c.148 0 .297.074.41.187a3.96 3.96 0 0 0 2.738 1.086c.336 0 .676-.039.977-.148a4.048 4.048 0 0 0 1.722-1.016.617.617 0 0 1 .414-.187c.148-.001.3.077.41.186l12.676 12.414a.598.598 0 0 1 .187.41.6.6 0 0 1-.188.415c-.715.75-1.125 1.722-1.09 2.738 0 1.047.414 1.984 1.164 2.7 0 0 0 .034.04.034.186.34.186.715-.04.938zm-12.973-.825-1.914-1.875c-.223-.222-.223-.597 0-.863.226-.222.6-.222.863 0l2.21 2.176c.153.152.227.375.153.562-.04.114-.074.227-.153.301a.59.59 0 0 1-.41.189.6.6 0 0 1-.414-.189zm4.574 4.461-2.214-2.17c-.223-.227-.223-.602 0-.864.226-.226.601-.226.863 0l2.215 2.176c.223.223.223.598 0 .86a.607.607 0 0 1-.413.187.617.617 0 0 1-.45-.189zm-15 162.212-4.085 20.809h-1.239l4.012-20.507c-1.086-.34-1.988-1.05-2.66-1.988a5.082 5.082 0 0 1-.863-3.188l-16.313-3.187a5.077 5.077 0 0 1-5.212 3.488L148.09 375h-1.235l5.137-26.21c.074-.337.375-.524.711-.49a3.85 3.85 0 0 0 4.54-3.034c.073-.336.374-.524.71-.489l17.438 3.414c.15.037.298.11.376.263.074.149.11.3.074.45-.188 1.01 0 2.023.598 2.886.562.862 1.464 1.425 2.476 1.651.148.037.3.11.375.263.148.113.187.262.148.45zm-12.296 17.285a7.647 7.647 0 0 1 1.235 3.524h-1.2c-.073-1.01-.448-1.983-1.01-2.886-.938-1.387-2.325-2.285-3.938-2.625a6.522 6.522 0 0 0-1.2-.11c-2.886 0-5.472 2.058-6.074 4.984-.039.188-.074.414-.074.602h-1.2c.035-.3.074-.563.11-.863.788-3.973 4.651-6.598 8.663-5.813a7.404 7.404 0 0 1 4.688 3.188zm-13.312-13.687c-.336-.074-.523-.375-.488-.71.074-.337.375-.524.715-.49l3.035.602c.34.075.527.375.488.711-.039.301-.3.489-.601.489h-.11zm5.852 1.164c-.34-.074-.528-.375-.489-.71.076-.34.376-.528.712-.49l3.04.599c.335.078.523.375.484.714-.035.301-.297.489-.598.489h-.113zm9.597 1.273c-.039.301-.3.489-.601.489h-.113l-3.036-.598c-.336-.078-.523-.375-.488-.715.073-.336.374-.523.714-.488l3.035.602c.335.074.562.375.487.71zm5.137 1.614-3.04-.597c-.335-.078-.522-.375-.483-.715.075-.336.376-.523.712-.488l3.039.602c.337.074.524.375.485.71-.035.301-.297.489-.598.489-.039.04-.074 0-.113 0zm8.098 4.274c.226.227.226.602 0 .863a.59.59 0 0 1-.41.188.6.6 0 0 1-.415-.188l-2.21-2.175c-.227-.223-.227-.598 0-.86.222-.226.597-.226.863 0zm4.238 4.164c.227.227.227.602 0 .864a.617.617 0 0 1-.414.187.615.615 0 0 1-.41-.188l-2.215-2.176c-.222-.227-.222-.602 0-.863.227-.223.602-.223.864 0zm16.012-.75c-.715.75-1.125 1.723-1.09 2.739 0 1.046.414 1.984 1.164 2.699 0 0 0 .035.04.035h-1.54a5 5 0 0 1-.824-2.733 5.22 5.22 0 0 1 1.05-3.153l-11.886-11.62c-.637.483-1.352.858-2.137 1.01-.302.075-.642.114-.977.114a5.2 5.2 0 0 1-3.149-1.05l-2.25 2.284c-.227.227-.602.227-.863 0-.226-.222-.226-.597 0-.859l2.665-2.703a.607.607 0 0 1 .41-.188c.148 0 .3.079.414.188a3.938 3.938 0 0 0 2.733 1.09c.34 0 .676-.04.977-.152a4.052 4.052 0 0 0 1.727-1.012.59.59 0 0 1 .41-.188.6.6 0 0 1 .414.188l12.673 12.414a.59.59 0 0 1 .187.41.55.55 0 0 1-.148.488zm-11.739 4.91c.153.153.227.375.153.563h-1.313l-1.914-1.874c-.223-.223-.223-.598 0-.86.226-.226.6-.226.863 0zm0 0" fill-opacity="1" fill-rule="nonzero"/></svg>